<?xml version="1.0" encoding="UTF-8" standalone="no"?>
<!-- Generator: Adobe Illustrator 15.0.0, SVG Export Plug-In . SVG Version: 6.00 Build 0)  -->
<!DOCTYPE svg  PUBLIC '-//W3C//DTD SVG 1.1//EN'  'http://www.w3.org/Graphics/SVG/1.1/DTD/svg11.dtd'>
<svg id="svg2" xmlns="http://www.w3.org/2000/svg" xml:space="preserve" height="24px" viewBox="0 0 24 24" width="24px" version="1.1" y="0px" x="0px" enable-background="new 0 0 24 24">
<linearGradient id="rect2723_1_" y2="-37875" gradientUnits="userSpaceOnUse" x2="7635.7" gradientTransform="matrix(.0378 0 0 -.0109 -276.39 -387.33)" y1="-37633" x1="7635.7">
	<stop style="stop-opacity:0" offset="0"/>
	<stop offset=".5"/>
	<stop style="stop-opacity:0" offset="1"/>
</linearGradient>
<rect id="rect2723" opacity=".4021" height="2.637" width="18.235" y="21.363" x="2.882" enable-background="new    " fill="url(#rect2723_1_)"/>
<radialGradient id="path2725_1_" gradientUnits="userSpaceOnUse" cy="-37753" cx="13191" gradientTransform="matrix(.0222 0 0 -.0109 -271.45 -387.33)" r="117.12">
	<stop offset="0"/>
	<stop style="stop-opacity:0" offset="1"/>
</radialGradient>
<path id="path2725" opacity=".4021" d="m21.109 21.363v2.637c1.143 0.005 2.762-0.591 2.762-1.318 0-0.729-1.275-1.319-2.762-1.319z" enable-background="new    " fill="url(#path2725_1_)"/>
<radialGradient id="path2727_1_" gradientUnits="userSpaceOnUse" cy="-37753" cx="-12551" gradientTransform="matrix(-.0222 0 0 -.0109 -275.59 -387.33)" r="117.13">
	<stop offset="0"/>
	<stop style="stop-opacity:0" offset="1"/>
</radialGradient>
<path id="path2727" opacity=".4021" d="m2.891 21.363v2.637c-1.142 0.005-2.762-0.591-2.762-1.318 0-0.729 1.275-1.319 2.762-1.319z" enable-background="new    " fill="url(#path2727_1_)"/>
<linearGradient id="rect2992_1_" y2="-1319.1" gradientUnits="userSpaceOnUse" x2="1276.1" gradientTransform="matrix(.1905 0 0 -.2485 -231.05 -305.4)" y1="-1302.7" x1="1276.1">
	<stop style="stop-color:#7A7A7A" offset="0"/>
	<stop style="stop-color:#474747" offset="1"/>
</linearGradient>
<path id="rect2992" stroke-linejoin="round" d="m23.5 18.5c-0.466 3.38-0.352 3.982-1.195 3.982-0.332 0.048-13.338 0-20.655 0-0.917 0-0.686 0.064-1.15-3.979l23-0.003z" stroke="#353537" fill="url(#rect2992_1_)"/>
<linearGradient id="rect9146_1_" y2="-361.88" gradientUnits="userSpaceOnUse" x2="126.29" gradientTransform="matrix(.7376 0 0 -.5393 -77.147 -174.67)" y1="-361.88" x1="108.66">
	<stop offset="0"/>
	<stop style="stop-color:#bbb;stop-opacity:0" offset="1"/>
</linearGradient>
<path id="rect9146" d="m2.7 19h13.3v3h-13l-0.3-3z" fill="url(#rect9146_1_)"/>
<linearGradient id="path9148_1_" y2="-360.33" gradientUnits="userSpaceOnUse" x2="115.77" gradientTransform="matrix(.7376 0 0 -.5393 -77.734 -173.96)" y1="-363.77" x1="115.83">
	<stop style="stop-color:#eee" offset="0"/>
	<stop style="stop-color:#eee;stop-opacity:0" offset="1"/>
</linearGradient>
<path id="path9148" opacity=".8114" d="m3 22l-0.2-2.163c1.354 1.714 6.32 2.163 9.743 2.163h-9.543z" enable-background="new    " fill="url(#path9148_1_)"/>
<radialGradient id="rect2990_1_" gradientUnits="userSpaceOnUse" cy="97.812" cx="-89.706" gradientTransform="matrix(1.5194 .0037 .003 -1.2368 143.22 126.64)" r="12">
	<stop style="stop-color:#E6E6E6" offset="0"/>
	<stop style="stop-color:#C8C8C8" offset="1"/>
</radialGradient>
<linearGradient id="rect2990_2_" y2="424.15" gradientUnits="userSpaceOnUse" x2="-281.04" y1="419" x1="-275.9">
	<stop style="stop-color:#969696" offset="0"/>
	<stop style="stop-color:#B4B4B4" offset="1"/>
</linearGradient>
<path id="rect2990" stroke-linejoin="round" d="m2.5 2l-1.978 16.482c-0.015 0-0.022 0.006-0.022 0.018h23c0-0.012-0.008-0.018-0.023-0.018l-1.977-16.482c-0.1-0.827-1.167-1.5-2-1.5h-15c-0.833 0-1.901 0.673-2 1.5z" stroke="url(#rect2990_2_)" stroke-linecap="round" fill="url(#rect2990_1_)"/>
<path id="path2215" opacity=".6" stroke-linejoin="round" d="m1.499 18.5h21.002" stroke="#fff" stroke-linecap="round" enable-background="new    " fill="none"/>
<radialGradient id="rect6300-3_1_" gradientUnits="userSpaceOnUse" cy="-1520" cx="283.58" gradientTransform="matrix(.5238 0 0 -.2143 -136.54 -305.22)" r="21">
	<stop style="stop-color:#fff" offset="0"/>
	<stop style="stop-color:#fff;stop-opacity:0" offset="1"/>
</radialGradient>
<rect id="rect6300-3" opacity=".2" height="3" width="22" y="19" x="1" enable-background="new    " fill="url(#rect6300-3_1_)"/>
<g id="g9164" transform="matrix(.066101 -.011416 .0079191 .045854 -.89214 -6.4254)">
	<path id="path9166" d="m48.304 190.28c0.311 4.252 5.022 7.714 10.51 7.717 5.489-0.007 9.642-3.467 9.278-7.71-0.365-4.233-5.075-7.642-10.512-7.643-5.436-0.01-9.589 3.39-9.276 7.63z" fill="#E6E6E6"/>
		<radialGradient id="path9168_1_" gradientUnits="userSpaceOnUse" cy="-71201" cx="25064" gradientTransform="matrix(.165 .0285 .0198 -.1144 -2669.4 -8671.9)" r="2.5635">
		<stop style="stop-color:#eee" offset="0"/>
		<stop style="stop-color:#CECECE" offset=".16"/>
		<stop style="stop-color:#888" offset=".4675"/>
		<stop style="stop-color:#555" offset="1"/>
	</radialGradient>
	<path id="path9168" d="m51.853 187.29c-0.5 0.536-1.076 1.393-1.073 2.544-0.004 0.095 0.002 0.171 0.005 0.267 0.219 2.919 3.896 5.4 8.026 5.395 2.356 0.001 4.508-0.816 5.757-2.177 0.535-0.58 1.146-1.546 1.034-2.831-0.25-2.905-3.924-5.353-8.016-5.35-2.343-0.01-4.486 0.8-5.733 2.15z" fill="url(#path9168_1_)"/>
</g>
<g id="g9170" transform="matrix(.067079 0 0 .046533 15.651 -7.2131)">
	<path id="path9172" d="m48.296 190.28c0.32 4.25 5.037 7.713 10.511 7.713 5.503 0 9.652-3.463 9.288-7.713-0.379-4.229-5.066-7.639-10.511-7.639s-9.594 3.41-9.288 7.64z" fill="#E6E6E6"/>
		<radialGradient id="path9174_1_" gradientUnits="userSpaceOnUse" cy="-68407" cx="22622" gradientTransform="matrix(.1674 0 0 -.1161 -3728.9 -7754)" r="2.5654">
		<stop style="stop-color:#eee" offset="0"/>
		<stop style="stop-color:#CECECE" offset=".16"/>
		<stop style="stop-color:#888" offset=".4675"/>
		<stop style="stop-color:#555" offset="1"/>
	</radialGradient>
	<path id="path9174" d="m51.848 187.29c-0.495 0.546-1.077 1.406-1.077 2.55 0 0.094 0 0.178 0.015 0.262 0.218 2.917 3.887 5.404 8.022 5.404 2.358 0 4.513-0.829 5.765-2.183 0.524-0.577 1.136-1.543 1.034-2.833-0.247-2.896-3.916-5.352-8.022-5.352-2.33 0-4.485 0.8-5.737 2.15z" fill="url(#path9174_1_)"/>
</g>
<radialGradient id="path8469_1_" gradientUnits="userSpaceOnUse" cy="-2066.2" cx="1373.1" gradientTransform="matrix(.1861 -.0031 -.0014 -.1807 -246.79 -352.79)" r="78.725">
	<stop style="stop-color:#F5F5F5" offset="0"/>
	<stop style="stop-color:#E7E7E7" offset=".4703"/>
	<stop style="stop-color:#8C8C8C" offset=".6935"/>
	<stop style="stop-color:#ddd" offset=".8354"/>
	<stop style="stop-color:#A8A8A8" offset="1"/>
</radialGradient>
<path id="path8469" d="m14.531 1.813c-0.277 0-0.524 0.081-0.719 0.219s-0.336 0.35-0.344 0.594c-0.025 0.75-0.408 1.289-1.125 1.781-0.711 0.488-1.755 0.9-3 1.281-0.01 0.003-0.021-0.003-0.031 0-0.471 0.099-1.245 0.376-2 0.656-0.765 0.284-1.464 0.558-1.781 0.781-1.597 1.005-2.583 2.342-2.718 3.813-0.124 1.339 0.479 2.679 1.656 3.75 1.722 1.566 4.535 2.5 7.531 2.5s5.809-0.934 7.531-2.5c1.074-0.978 1.656-2.155 1.656-3.375 0-0.099 0.012-0.242 0-0.374-0.119-1.292-0.916-2.485-2.187-3.439-0.036-0.504-0.344-4.875-0.344-4.875-0.018-0.244-0.176-0.457-0.375-0.594s-0.442-0.219-0.719-0.219h-3.031zm0 0.531h3.031c0.067 0 0.125 0.019 0.156 0.031l0.376 5.125c-0.004 0.021-0.004 0.042 0 0.063 0.01 0.012 0.02 0.022 0.031 0.031 0.016 0.025 0.037 0.047 0.063 0.063 1.232 0.843 1.959 2.127 2.063 3.25 0.129 1.395-0.699 2.549-2.188 3.406s-3.625 1.375-6.063 1.375c-2.437 0-4.574-0.518-6.063-1.375s-2.316-2.012-2.188-3.406c0.112-1.201 0.957-2.537 2.345-3.407 0.012-0.009 0.022-0.02 0.031-0.031 0.004-0.004 0.069-0.048 0.156-0.094s0.208-0.095 0.344-0.156c0.271-0.123 0.601-0.264 0.969-0.406 0.735-0.284 1.568-0.55 1.969-0.625 0.01 0.001 0.021 0.001 0.031 0 1.209-0.368 2.358-0.807 3.25-1.406 0.874-0.587 1.504-1.369 1.563-2.406 0.02-0.011 0.06-0.032 0.124-0.032z" fill="url(#path8469_1_)"/>
<radialGradient id="path9156_1_" gradientUnits="userSpaceOnUse" cy="4937.7" cx="2944.6" gradientTransform="matrix(.0925 0 0 .0872 -260.67 -422.74)" r="78.727">
	<stop style="stop-color:#fff" offset="0"/>
	<stop style="stop-color:#E7E7E7" offset=".4703"/>
	<stop style="stop-color:#8C8C8C" offset=".6718"/>
	<stop style="stop-color:#ddd" offset=".8354"/>
	<stop style="stop-color:#A8A8A8" offset="1"/>
</radialGradient>
<path id="path9156" d="m12 13c-1.683 0-2.972-0.845-3-1.965v-0.036c0-0.406 0.169-0.791 0.49-1.118 0.544-0.551 1.482-0.881 2.51-0.881 1.027 0 1.966 0.33 2.51 0.881 0.33 0.335 0.5 0.735 0.49 1.154-0.027 1.12-1.318 1.965-3 1.965zm0.05-2.746c-1.581 0-2.436 0.21-2.417 0.974 0.018 0.753 1.078 1.354 2.367 1.354s2.35-0.601 2.367-1.354c0.02-0.764-0.736-0.974-2.317-0.974z" fill="url(#path9156_1_)"/>
<radialGradient id="path8473_1_" gradientUnits="userSpaceOnUse" cy="-7435.8" cx="2061" gradientTransform="matrix(.1001 -.0234 -.0082 -.0597 -258.67 -391.16)" r="78.728">
	<stop style="stop-color:#F5F5F5" offset="0"/>
	<stop style="stop-color:#E7E7E7" offset=".4703"/>
	<stop style="stop-color:#8C8C8C" offset=".6935"/>
	<stop style="stop-color:#ddd" offset=".8354"/>
	<stop style="stop-color:#A8A8A8" offset="1"/>
</radialGradient>
<path id="path8473" d="m4.969 1.75c-0.068 0.018-0.124 0.064-0.156 0.125-0.013 0.02-0.024 0.04-0.031 0.063l-0.063 0.218-0.844 3.25-0.125 0.532c-0.006 0.031-0.006 0.063 0 0.094 0.004 0.033 0.015 0.065 0.031 0.094 0.032 0.061 0.089 0.106 0.157 0.124 0.041 0.011 0.084 0.011 0.125 0l0.406-0.125 6.875-2.031h0.031 0.031 0.032c0.022-0.007 0.043-0.018 0.062-0.031 0.46-0.254 0.695-0.743 0.75-1.188 0.028-0.228 0.008-0.457-0.062-0.656-0.041-0.113-0.127-0.221-0.219-0.313-0.093-0.091-0.212-0.161-0.375-0.156h-6.563c-0.02-0.002-0.042-0.002-0.062 0zm0.5 0.688h5.906c-0.015 0.078-0.035 0.131-0.063 0.219-0.049 0.162-0.145 0.293-0.124 0.281l-6.25 1.812 0.531-2.312z" fill="url(#path8473_1_)"/>
<g id="g9158" transform="matrix(-.097811 0 0 .10767 8.1622 -3.8183)">
	<path id="path9160" d="m48.299 190.28c0.315 4.254 5.027 7.709 10.513 7.709 5.491 0 9.645-3.456 9.275-7.709-0.364-4.227-5.067-7.637-10.503-7.637s-9.594 3.41-9.285 7.64z" fill="#E6E6E6"/>
		<radialGradient id="path9162_1_" gradientUnits="userSpaceOnUse" cy="-11004" cx="13805" gradientTransform="matrix(-.2441 0 0 -.2687 3428 -2766.7)" r="2.5646">
		<stop style="stop-color:#eee" offset="0"/>
		<stop style="stop-color:#CECECE" offset=".16"/>
		<stop style="stop-color:#888" offset=".4675"/>
		<stop style="stop-color:#555" offset="1"/>
	</radialGradient>
	<path id="path9162" d="m51.849 187.29c-0.499 0.535-1.073 1.397-1.073 2.54 0 0.091 0.005 0.181 0.01 0.272 0.22 2.921 3.894 5.397 8.027 5.397 2.351 0 4.503-0.825 5.751-2.186 0.539-0.58 1.148-1.542 1.038-2.83-0.25-2.902-3.924-5.351-8.022-5.351-2.337 0.01-4.478 0.8-5.731 2.16z" fill="url(#path9162_1_)"/>
</g>
<g id="g9190" transform="matrix(.097811 0 0 .10767 15.777 -3.8183)">
	<path id="path9192" d="m48.307 190.28c0.31 4.254 5.012 7.709 10.503 7.709s9.645-3.456 9.285-7.709c-0.369-4.227-5.072-7.637-10.513-7.637s-9.595 3.41-9.275 7.64z" fill="#E6E6E6"/>
		<radialGradient id="path9194_1_" fx="10035" gradientUnits="userSpaceOnUse" cy="-11004" cx="10034" gradientTransform="matrix(.2441 0 0 -.2687 -2391.2 -2766.7)" r="2.5637">
		<stop style="stop-color:#eee" offset="0"/>
		<stop style="stop-color:#CECECE" offset=".16"/>
		<stop style="stop-color:#888" offset=".4675"/>
		<stop style="stop-color:#555" offset="1"/>
	</radialGradient>
	<path id="path9194" d="m51.851 187.3c-0.499 0.535-1.068 1.397-1.068 2.54v0.272c0.22 2.921 3.894 5.397 8.027 5.397 2.356 0 4.513-0.825 5.751-2.186 0.539-0.58 1.158-1.542 1.038-2.83-0.25-2.902-3.914-5.351-8.017-5.351-2.336 0-4.483 0.79-5.731 2.16z" fill="url(#path9194_1_)"/>
</g>
<radialGradient id="path2638_1_" gradientUnits="userSpaceOnUse" cy="-1492.8" cx="-15.743" gradientTransform="matrix(1.1045 0 0 -.2148 29.515 -307.24)" r="8.0625">
	<stop style="stop-color:#0D0D0D" offset="0"/>
	<stop style="stop-color:#0D0D0D;stop-opacity:0" offset="1"/>
</radialGradient>
<path id="path2638" opacity=".1629" d="m21.032 13.363c0 0.957-3.987 1.731-8.905 1.731s-8.905-0.774-8.905-1.731c0-0.956 3.987-1.731 8.905-1.731s8.905 0.775 8.905 1.731z" enable-background="new    " fill="url(#path2638_1_)"/>
<radialGradient id="path2317_1_" gradientUnits="userSpaceOnUse" cy="1229" cx="1553.4" gradientTransform="matrix(-.00013190 .236 .3747 0 -457.4 -365.65)" r="38.214">
	<stop style="stop-color:#FFC391" offset="0"/>
	<stop style="stop-color:#FA650B" offset="1"/>
</radialGradient>
<radialGradient id="path2317_2_" gradientUnits="userSpaceOnUse" cy="458.6" cx="-189.38" r="38.213">
	<stop style="stop-color:#F9650D" offset="0"/>
	<stop style="stop-color:#C15619" offset="1"/>
</radialGradient>
<path id="path2317" d="m12.091 0.501c-0.711 0-1.283 0.571-1.283 1.275 0 0.705 0.572 1.275 1.283 1.275s1.294-0.571 1.293-1.275c0.001-0.704-0.582-1.275-1.293-1.275zm-3.82 1.275c-0.641 0.047-1.256 0.206-1.825 0.438l1.154 1.953c0.294-0.092 0.6-0.143 0.922-0.159 0.063-0.003 0.126 0 0.19 0 1.767 0 3.242 1.229 3.609 2.869h2.296c-0.163-1.192-0.692-2.272-1.464-3.128-0.317 0.169-0.678 0.259-1.063 0.259-1.208 0-2.2-0.939-2.256-2.122-0.363-0.069-0.739-0.11-1.123-0.11-0.077 0-0.154-0.002-0.23 0-0.025 0.001-0.045-0.001-0.07 0-0.023 0.001-0.047-0.001-0.07 0-0.022 0.001-0.048-0.001-0.07 0zm-3.208 1.236c-0.925 0.713-1.63 1.694-2.005 2.819 0.593 0.402 0.982 1.078 0.982 1.843 0 0.766-0.389 1.441-0.982 1.843 0.375 1.125 1.08 2.107 2.005 2.82l1.143-1.963c-0.735-0.67-1.193-1.633-1.193-2.7 0-1.066 0.459-2.028 1.193-2.7l-1.143-1.962zm-3.269 3.387c-0.711 0-1.293 0.571-1.293 1.275 0 0.705 0.582 1.275 1.293 1.275s1.283-0.571 1.283-1.275c0.001-0.704-0.572-1.275-1.283-1.275zm10.528 2.072c-0.368 1.641-1.843 2.869-3.61 2.869-0.391 0-0.76-0.058-1.113-0.169l-1.153 1.953c0.699 0.285 1.463 0.448 2.266 0.448 0.384 0 0.759-0.041 1.123-0.11 0.056-1.133 0.976-2.05 2.116-2.122 0.048-0.003 0.091 0 0.14 0 0.385 0 0.747 0.091 1.063 0.259 0.771-0.856 1.301-1.936 1.464-3.128h-2.296zm-0.231 3.826c-0.711 0-1.283 0.57-1.283 1.275 0 0.703 0.572 1.275 1.283 1.275s1.293-0.572 1.293-1.275c0.001-0.705-0.581-1.275-1.293-1.275z" display="none" stroke="url(#path2317_2_)" stroke-width="1.0018" fill="url(#path2317_1_)"/>
	<polygon points="7.005 8.799 6.259 6.722 4.319 8.24 5.58 8.416" fill="#B2DEF0"/>
	<polygon stroke="#231815" stroke-width=".883" points="9.673 9.713 9.736 9.74 9.738 9.696" fill="none"/>
	<polygon points="9.736 9.74 11.626 10.539 12.167 9.184 9.673 9.713" fill="#009FE8"/>
	<polygon points="6.682 10.374 9.673 9.713 7.005 8.799" fill="#B2DEF0"/>
	<polygon points="4.319 8.24 4.69 10.829 5.58 8.416" fill="#009FE8"/>
	<polygon points="5.582 8.416 4.69 10.829 7.005 8.799" fill="#0091DA"/>
	<polygon points="4.69 10.829 6.682 10.374 7.005 8.799" fill="#009FE8"/>
	<polygon stroke="#231815" stroke-width=".883" points="6.693 4.321 6.707 4.339 6.709 4.327" fill="none"/>
	<polygon points="6.259 6.722 7.834 6.791 7.87 5.694" fill="#0062B0"/>
	<polygon points="9.646 8.15 7.834 6.791 7.005 8.799" fill="#0091DA"/>
	<polygon stroke="#231815" stroke-width=".883" points="6.712 4.311 6.693 4.321 6.709 4.327" fill="none"/>
	<polygon points="7.005 8.799 7.834 6.791 6.259 6.722" fill="#009FE8"/>
	<polygon points="10.04 14.336 10.048 13.538 10.051 13.538 9.362 13.127" fill="#0062B0"/>
	<polygon points="8.106 14.307 10.04 14.336 9.362 13.127" fill="#004380"/>
	<polygon points="9.362 13.127 10.051 13.538 10.061 13.532 10.58 11.654" fill="#004380"/>
	<polygon points="12.418 14.159 13.852 12.819 12.081 13.025" fill="#0062B0"/>
	<polygon points="10.534 15.287 12.512 15.291 12.418 14.159 11.167 14.462 12.418 14.159 12.081 13.025" fill="#004380"/>
	<polygon points="10.061 13.532 11.524 12.34 10.58 11.654" fill="#0062B0"/>
	<polygon points="13.852 12.819 13.124 11.316 12.081 13.025" fill="#004380"/>
	<polygon points="2.937 14.777 4.828 14.777 3.641 13.931" fill="#004380"/>
	<polygon points="7.529 2.892 8.468 2.521 9.391 0.972" fill="#0091DA"/>
	<polygon points="7.756 1.623 5.895 3.542 7.085 2.809" fill="#0091DA"/>
	<polygon points="11.545 12.34 12.081 13.025 13.124 11.316 10.58 11.654" fill="#0091DA"/>
	<polygon points="8.468 2.521 7.529 2.892 8.605 3.338" fill="#009FE8"/>
	<polygon points="7.269 2.849 7.754 1.634 7.08 2.815" fill="#B2DEF0"/>
	<polygon points="8.468 2.521 8.605 3.338 9.391 0.975" fill="#B2DEF0"/>
	<polygon points="4.295 13.146 3.641 13.931 5.069 13.048 3.894 12.177" fill="#0091DA"/>
	<polygon points="4.347 6.388 4.319 8.24 6.259 6.722" fill="#009FE8"/>
	<polygon points="4.828 14.777 5.069 13.048 3.641 13.931" fill="#0062B0"/>
	<polygon points="13.124 11.316 13.036 9.486 11.626 10.539" fill="#0062B0"/>
	<polygon points="10.58 11.654 13.124 11.316 11.626 10.539" fill="#009FE8"/>
	<polygon points="11.626 10.539 13.036 9.486 12.167 9.184" fill="#0091DA"/>
	<polygon points="13.036 9.486 14.502 8.624 13.964 8.215" fill="#0091DA"/>
	<polygon points="9.545 10.961 10.58 11.654 11.626 10.539" fill="#0062B0"/>
	<polygon points="12.933 8.769 12.167 9.184 13.036 9.486 13.964 8.215" fill="#009FE8"/>
	<polygon points="8.503 11.511 9.545 10.961 6.682 10.374" fill="#004380"/>
	<polygon points="9.673 9.713 9.545 10.961 11.626 10.539" fill="#0091DA"/>
	<polygon points="9.673 9.713 6.682 10.374 9.545 10.961" fill="#0062B0"/>
	<polygon points="15.021 6.635 15.68 7.46 15.694 7.446 16.748 6.093" fill="#B2DEF0"/>
	<polygon points="15.322 8.785 16.43 8.382 15.68 7.46" fill="#0091DA"/>
	<polygon points="15.68 7.46 14.488 8.626 15.318 8.787" fill="#0062B0"/>
	<polygon points="13.964 8.215 14.504 8.628 15.021 6.635" fill="#009FE8"/>
	<polygon points="15.68 7.46 16.43 8.386 16.752 6.093" fill="#009FE8"/>
	<polygon points="15.021 6.635 14.488 8.626 15.68 7.46" fill="#0091DA"/>
	<polygon points="7.08 12.081 8.503 11.511 6.682 10.374" fill="#0091DA"/>
	<polygon points="6.259 6.722 4.379 4.44 4.347 6.388" fill="#0091DA"/>
	<polygon points="5.902 3.481 4.379 4.44 6.052 4.859" fill="#0091DA"/>
	<polygon points="6.052 4.859 4.379 4.44 6.259 6.722" fill="#009FE8"/>
	<polygon points="4.347 6.388 4.379 4.44 3.645 6.004 4.335 6.387" fill="#009FE8"/>
	<polygon points="6.259 6.722 6.707 4.339 6.693 4.321 5.902 3.481 6.052 4.859" fill="#0062B0"/>
	<polygon points="6.707 4.339 7.085 2.809 5.902 3.48 6.693 4.321" fill="#009FE8"/>
	<polygon points="2.603 7.799 4.335 6.387 3.645 6.004" fill="#0062B0"/>
	<polygon points="2.603 7.799 4.319 8.24 4.347 6.388 4.335 6.387" fill="#0091DA"/>
	<polygon points="5.069 13.048 5.829 11.853 4.69 10.829" fill="#004380"/>
	<polygon points="5.829 11.853 7.08 12.081 6.682 10.374" fill="#009FE8"/>
	<polygon points="3.894 12.177 5.069 13.048 4.69 10.829" fill="#0062B0"/>
	<polygon points="4.69 10.829 5.829 11.853 6.682 10.374" fill="#0062B0"/>
	<polygon points="3.584 10.265 4.319 8.24 2.603 7.799" fill="#0062B0"/>
	<polygon points="3.584 10.265 3.894 12.177 4.69 10.829" fill="#009FE8"/>
	<polygon points="4.319 8.24 3.584 10.265 4.69 10.829" fill="#0091DA"/>
	<polygon points="12.167 9.184 9.646 8.15 9.673 9.713" fill="#B2DEF0"/>
	<polygon points="9.673 9.713 9.673 9.713 9.646 8.15 7.005 8.799" fill="#009FE8"/>
	<polygon points="6.707 4.339 6.259 6.722 7.87 5.694" fill="#0091DA"/>
	<polygon points="6.707 4.339 7.87 5.694 9.043 5.109 6.709 4.327" fill="#009FE8"/>
	<polygon points="7.834 6.791 9.043 5.109 7.87 5.694" fill="#B2DEF0"/>
	<polygon points="6.707 4.339 9.043 5.109 8.605 3.338" fill="#B2DEF0"/>
	<polygon points="8.605 3.338 7.529 2.892 7.085 2.809 6.707 4.337" fill="#0091DA"/>
<radialGradient id="path2272_1_" gradientUnits="userSpaceOnUse" cy="-2413.5" cx="41897" gradientTransform="matrix(.0092 .0061 .0359 -.0536 -295.83 -379.74)" r="116.22">
	<stop style="stop-color:#fff" offset="0"/>
	<stop style="stop-color:#fff;stop-opacity:0" offset="1"/>
</radialGradient>
<path id="path2272" opacity=".6" d="m5.007 3.392c-0.776 0.64-1.375 1.483-1.717 2.445 0.559 0.424 0.927 1.085 0.927 1.836s-0.368 1.413-0.927 1.837c0.342 0.962 0.941 1.806 1.717 2.445l0.956-1.643c-0.69-0.673-1.122-1.605-1.122-2.639 0-1.033 0.433-1.964 1.122-2.638l-0.956-1.643zm-0.078 0.474l0.644 1.121c-0.617 0.68-1.009 1.566-1.044 2.542-0.039-0.71-0.371-1.347-0.868-1.798 0.285-0.71 0.722-1.346 1.268-1.865zm-0.4 3.952c0.035 0.976 0.426 1.862 1.044 2.542l-0.644 1.121c-0.546-0.519-0.983-1.155-1.269-1.865 0.499-0.451 0.83-1.088 0.869-1.798z" enable-background="new    " fill="url(#path2272_1_)"/>
<radialGradient id="path2284_1_" gradientUnits="userSpaceOnUse" cy="-7180.3" cx="6547.6" gradientTransform="matrix(.0397 -.0014 -.002 -.0553 -273.23 -380.53)" r="26.269">
	<stop style="stop-color:#fff" offset="0"/>
	<stop style="stop-color:#fff;stop-opacity:0" offset="1"/>
</radialGradient>
<path id="path2284" opacity=".6" d="m1.668 6.64c-0.52 0.058-0.922 0.501-0.922 1.033 0 0.572 0.466 1.034 1.044 1.034s1.044-0.462 1.044-1.034-0.467-1.033-1.045-1.033c-0.038 0-0.069-0.001-0.084 0-0.012 0.001-0.024-0.002-0.037 0zm0.028 0.295c0.012-0.001 0.025 0.001 0.038 0h0.056c0.417 0 0.746 0.326 0.746 0.738s-0.33 0.739-0.747 0.739-0.745-0.326-0.745-0.739c0-0.381 0.285-0.692 0.652-0.738z" enable-background="new    " fill="url(#path2284_1_)"/>
<radialGradient id="path4951_1_" gradientUnits="userSpaceOnUse" cy="-7847.6" cx="7146.7" gradientTransform="matrix(.0365 -.0013 -.0018 -.0508 -263.81 -388.14)" r="26.262">
	<stop style="stop-color:#fff" offset="0"/>
	<stop style="stop-color:#fff;stop-opacity:0" offset="1"/>
</radialGradient>
<path id="path4951" opacity=".6" d="m11.943 0.826c-0.478 0.053-0.848 0.46-0.848 0.95 0 0.526 0.429 0.95 0.96 0.95s0.958-0.424 0.958-0.95-0.428-0.95-0.958-0.95c-0.035 0-0.064-0.001-0.077 0-0.012 0.001-0.023-0.002-0.035 0zm0.026 0.271c0.011-0.001 0.023 0.001 0.034 0h0.052c0.383 0 0.685 0.3 0.685 0.679s-0.302 0.679-0.685 0.679-0.685-0.299-0.685-0.679c0-0.351 0.261-0.637 0.599-0.679z" enable-background="new    " fill="url(#path4951_1_)"/>
<radialGradient id="path4955_1_" gradientUnits="userSpaceOnUse" cy="-3711" cx="39383" gradientTransform="matrix(.00057345 .0107 -.0631 .0035 -248.88 -406.85)" r="116.22">
	<stop style="stop-color:#fff" offset="0"/>
	<stop style="stop-color:#fff;stop-opacity:0" offset="1"/>
</radialGradient>
<path id="path4955" opacity=".6" d="m6.837 2.355c0.924-0.332 1.934-0.415 2.917-0.226 0.082 0.677 0.459 1.311 1.095 1.683 0.635 0.371 1.376 0.391 2.012 0.133 0.645 0.762 1.062 1.68 1.219 2.644l-1.863-0.014c-0.228-0.909-0.803-1.731-1.677-2.242s-1.875-0.61-2.787-0.368l-0.916-1.61zm0.439 0.169l0.63 1.092c0.88-0.179 1.824-0.068 2.666 0.385-0.581-0.383-0.956-0.976-1.091-1.614-0.742-0.113-1.496-0.063-2.205 0.137zm3.541 1.621c0.808 0.512 1.365 1.276 1.634 2.129l1.267 0.016c-0.169-0.713-0.491-1.393-0.95-1.982-0.628 0.193-1.331 0.154-1.951-0.163z" enable-background="new    " fill="url(#path4955_1_)"/>
<linearGradient id="path4972_1_" y2="-965.45" gradientUnits="userSpaceOnUse" x2="680.68" gradientTransform="matrix(.3035 0 0 -.3016 -191.08 -277.28)" y1="-937.05" x1="680.68">
	<stop style="stop-color:#D7E866" offset="0"/>
	<stop style="stop-color:#8CAB2A" offset="1"/>
</linearGradient>
<path id="path4972" d="m21.5 9.5l-4.454 5-4.546-5h2.76c0.621-1.654-0.654-2.812-2.134-2.812-1.051 0-2.477 0.574-2.959 2.003-0.25 0.743-0.692 0.417-0.675-0.229 0.066-2.491 1.925-4.484 4.699-4.484 2.775 0 4.838 2.245 4.682 5.521h2.627z" stroke="#699536" fill="url(#path4972_1_)"/>
<linearGradient id="path4980_1_" y2="374.45" gradientUnits="userSpaceOnUse" x2="-180.18" y1="430.45" x1="-226.75">
	<stop style="stop-color:#fff" offset="0"/>
	<stop style="stop-color:#fff;stop-opacity:0" offset="1"/>
</linearGradient>
<path id="path4980" opacity=".354" d="m19.266 10.556l-2.262 2.428-2.204-2.512h1.21c0.951-2.104-0.611-4.721-2.496-4.751-1.357-0.105-2.825 1.385-3.566 2.279 0.472-2.116 1.981-2.984 4.302-2.988 2.344-0.004 3.977 1.943 3.459 5.461l1.557 0.083z" stroke="url(#path4980_1_)" enable-background="new    " fill="none"/>
</svg>
