<?xml version="1.0" encoding="UTF-8" standalone="no"?>
<!-- Generator: Adobe Illustrator 15.0.0, SVG Export Plug-In . SVG Version: 6.00 Build 0)  -->
<!DOCTYPE svg  PUBLIC '-//W3C//DTD SVG 1.1//EN'  'http://www.w3.org/Graphics/SVG/1.1/DTD/svg11.dtd'>
<svg id="svg3338" xmlns="http://www.w3.org/2000/svg" xml:space="preserve" height="64px" viewBox="0 0 64 64" width="64px" version="1.1" y="0px" x="0px" enable-background="new 0 0 64 64">
<g id="layer1">
		<linearGradient id="rect2723_1_" y2="-14342" gradientUnits="userSpaceOnUse" x2="2703.9" gradientTransform="matrix(.1018 0 0 -.0275 -243.29 -333.72)" y1="-14100" x1="2703.9">
		<stop style="stop-opacity:0" offset="0"/>
		<stop offset=".5"/>
		<stop style="stop-opacity:0" offset="1"/>
	</linearGradient>
		<rect id="rect2723" opacity=".3" height="6.667" width="49.16" y="53.333" x="7.42" enable-background="new    " fill="url(#rect2723_1_)"/>
		<radialGradient id="path2725_1_" gradientUnits="userSpaceOnUse" cy="-14220" cx="4780.6" gradientTransform="matrix(.0598 0 0 -.0275 -229.12 -333.72)" r="117.14">
		<stop offset="0"/>
		<stop style="stop-opacity:0" offset="1"/>
	</radialGradient>
	<path id="path2725" opacity=".3" d="m56.557 53.334v6.666c3.078 0.012 7.443-1.494 7.443-3.334s-3.436-3.332-7.443-3.332z" enable-background="new    " fill="url(#path2725_1_)"/>
		<radialGradient id="path2727_1_" gradientUnits="userSpaceOnUse" cy="-14220" cx="-4100.1" gradientTransform="matrix(-.0598 0 0 -.0275 -237.91 -333.72)" r="117.14">
		<stop offset="0"/>
		<stop style="stop-opacity:0" offset="1"/>
	</radialGradient>
	<path id="path2727" opacity=".3" d="m7.444 53.334v6.666c-3.079 0.012-7.444-1.494-7.444-3.334s3.437-3.332 7.444-3.332z" enable-background="new    " fill="url(#path2727_1_)"/>
		<linearGradient id="rect6431_1_" y2="16.907" gradientUnits="userSpaceOnUse" x2="-40.833" gradientTransform="matrix(1.3574 0 0 -1.0099 87.507 74.126)" y1="25.906" x1="-40.895">
		<stop style="stop-color:#7A7A7A" offset="0"/>
		<stop style="stop-color:#474747" offset="1"/>
	</linearGradient>
		<path id="rect6431" stroke-linejoin="round" d="m1.464 48.464h61.072l-1.222 8.072h-58.493l-1.357-8.072z" stroke="#353537" stroke-linecap="round" stroke-width=".928" fill="url(#rect6431_1_)"/>
	<rect id="rect6381" height="1.363" width="60.869" y="47.626" x="1.566" fill="#D2D2D3"/>
		<radialGradient id="path6345_1_" gradientUnits="userSpaceOnUse" cy="284.02" cx="-56.783" gradientTransform="matrix(1.8622 .9518 .6332 -1.262 -58.15 428.88)" r="23.048">
		<stop style="stop-color:#E6E6E6" offset="0"/>
		<stop style="stop-color:#C8C8C8" offset="1"/>
	</radialGradient>
	<linearGradient id="path6345_2_" y2="442.5" gradientUnits="userSpaceOnUse" x2="-247.43" y1="422.7" x1="-247.69">
		<stop style="stop-color:#969696" offset="0"/>
		<stop style="stop-color:#B4B4B4" offset="1"/>
	</linearGradient>
		<path id="path6345" stroke-linejoin="round" d="m62.502 48.502l-9.211-35.188c-0.26-1.003-1.625-1.816-2.771-1.816h-37.357c-1.762 0-2.772 0.271-3.143 1.816l-8.522 35.154" stroke="url(#path6345_2_)" stroke-linecap="round" stroke-width=".9958" fill="url(#path6345_1_)"/>
	<path id="path7046" opacity=".4" d="m61.5 48.516l-59-0.031" stroke="#fff" stroke-linecap="round" enable-background="new    " fill="none"/>
		<radialGradient id="path9001_1_" gradientUnits="userSpaceOnUse" cy="-743.14" cx="427.08" gradientTransform="matrix(.4757 -.0069 -.0035 -.3975 -174.66 -248.17)" r="78.727">
		<stop style="stop-color:#F5F5F5" offset="0"/>
		<stop style="stop-color:#E7E7E7" offset=".4703"/>
		<stop style="stop-color:#8C8C8C" offset=".6935"/>
		<stop style="stop-color:#ddd" offset=".8354"/>
		<stop style="stop-color:#A8A8A8" offset="1"/>
	</radialGradient>
	<path id="path9001" d="m54.961 32.764c-0.294-2.747-2.268-5.367-5.547-7.434-0.066-0.794-0.907-10.959-0.907-10.959-0.064-0.781-1.044-1.371-2.28-1.371h-7.754c-1.244 0-2.205 0.597-2.238 1.39-0.142 3.579-4.479 5.448-10.951 7.148-2.268 0.399-8.18 2.276-9.537 3.1-3.995 2.163-6.377 5.048-6.707 8.125-0.3 2.801 1.143 5.602 4.064 7.889 4.274 3.349 11.338 5.348 18.896 5.348 7.557 0 14.621-1.999 18.896-5.348 2.668-2.088 4.104-4.607 4.104-7.16 0-0.243-0.014-0.486-0.039-0.728zm-22.961 11.847c-12.587 0-22.226-5.61-21.528-12.114 0.301-2.803 2.509-5.797 6.165-7.769 0.685-0.525 6.869-2.565 9.088-2.923 6.148-1.612 11.771-3.704 11.947-8.111 0.008-0.211 0.362-0.379 0.801-0.379h7.754c0.448 0 0.828 0.176 0.846 0.392l0.941 11.388c3.258 1.919 5.233 4.784 5.514 7.402 0.697 6.504-8.941 12.114-21.528 12.114z" fill="url(#path9001_1_)"/>
		<radialGradient id="path9003_1_" gradientUnits="userSpaceOnUse" cy="2494.5" cx="953.84" gradientTransform="matrix(.2466 0 0 .1743 -204.2 -408.55)" r="78.728">
		<stop style="stop-color:#fff" offset="0"/>
		<stop style="stop-color:#E7E7E7" offset=".4703"/>
		<stop style="stop-color:#8C8C8C" offset=".6718"/>
		<stop style="stop-color:#ddd" offset=".8354"/>
		<stop style="stop-color:#A8A8A8" offset="1"/>
	</radialGradient>
	<path id="path9003" d="m32 37c-4.487 0-7.926-1.689-7.999-3.93 0-0.025-0.001-0.049-0.001-0.072 0-0.811 0.451-1.582 1.307-2.235 1.449-1.104 3.951-1.763 6.693-1.763s5.243 0.659 6.693 1.763c0.881 0.671 1.332 1.469 1.306 2.305-0.074 2.243-3.513 3.932-7.999 3.932zm0-6.746c-4.216 0-6.364 1.674-6.313 3.203 0.049 1.505 2.875 2.707 6.313 2.707s6.264-1.203 6.313-2.707c0.05-1.529-2.098-3.203-6.313-3.203z" fill="url(#path9003_1_)"/>
	<path id="path9007" d="m7.997 45.493c-0.064 0.83-1.014 1.507-2.121 1.507s-1.945-0.677-1.872-1.507c0.074-0.826 1.023-1.493 2.12-1.493s1.935 0.667 1.873 1.493z" fill="#E1E1E1"/>
		<radialGradient id="path9009_1_" fx="-679.26" fy="-442.96" gradientUnits="userSpaceOnUse" cy="-443.38" cx="-679.86" gradientTransform="matrix(-.5034 0 0 -.4878 -336.26 -170.78)" r="2.5634">
		<stop style="stop-color:#eee" offset="0"/>
		<stop style="stop-color:#CECECE" offset=".16"/>
		<stop style="stop-color:#888" offset=".4675"/>
		<stop style="stop-color:#555" offset="1"/>
	</radialGradient>
	<path id="path9009" d="m7.28 44.909c0.101 0.104 0.217 0.274 0.217 0.498 0 0.016-0.001 0.032-0.002 0.05-0.043 0.572-0.785 1.055-1.619 1.055-0.475 0-0.909-0.158-1.161-0.425-0.108-0.112-0.231-0.302-0.209-0.552 0.051-0.568 0.792-1.047 1.618-1.047 0.472 0 0.904 0.157 1.156 0.421z" fill="url(#path9009_1_)"/>
	<path id="path9019" d="m11.016 13.31c0.118 0.526 0.883 0.813 1.706 0.639s1.387-0.744 1.26-1.268c-0.126-0.522-0.889-0.803-1.704-0.63s-1.38 0.735-1.262 1.259z" fill="#F0F0F0"/>
		<radialGradient id="path9021_1_" fx="402.92" fy="-1020.6" gradientUnits="userSpaceOnUse" cy="-1021" cx="402.32" gradientTransform="matrix(.3741 -.0793 -.0421 -.315 -181.04 -276.7)" r="2.5662">
		<stop style="stop-color:#eee" offset="0"/>
		<stop style="stop-color:#CECECE" offset=".16"/>
		<stop style="stop-color:#888" offset=".4675"/>
		<stop style="stop-color:#555" offset="1"/>
	</radialGradient>
	<path id="path9021" d="m11.497 12.82c-0.066 0.084-0.137 0.211-0.118 0.356 0.002 0.01 0.004 0.021 0.006 0.031 0.082 0.363 0.675 0.558 1.294 0.427 0.353-0.075 0.662-0.245 0.826-0.457 0.071-0.091 0.146-0.232 0.108-0.39-0.087-0.358-0.679-0.551-1.293-0.421-0.35 0.074-0.658 0.244-0.823 0.454z" fill="url(#path9021_1_)"/>
	<path id="path9025" d="m49 12.701c-0.018 0.531 0.641 1.089 1.475 1.245 0.83 0.155 1.514-0.153 1.525-0.685 0.012-0.529-0.648-1.081-1.473-1.235s-1.507 0.148-1.527 0.675z" fill="#E1E1E1"/>
		<radialGradient id="path9027_1_" fx="661.72" fy="-727.87" gradientUnits="userSpaceOnUse" cy="-728.28" cx="661.12" gradientTransform="matrix(.3783 .0706 .039 -.3065 -171.19 -256.88)" r="2.5628">
		<stop style="stop-color:#eee" offset="0"/>
		<stop style="stop-color:#CECECE" offset=".16"/>
		<stop style="stop-color:#888" offset=".4675"/>
		<stop style="stop-color:#555" offset="1"/>
	</radialGradient>
	<path id="path9027" d="m49.585 12.435c-0.084 0.052-0.185 0.142-0.203 0.283-0.001 0.01-0.001 0.02-0.002 0.031-0.013 0.366 0.507 0.773 1.132 0.89 0.357 0.067 0.696 0.028 0.906-0.104 0.09-0.056 0.198-0.157 0.201-0.318 0.008-0.364-0.512-0.769-1.133-0.885-0.353-0.065-0.69-0.027-0.901 0.103z" fill="url(#path9027_1_)"/>
		<linearGradient id="rect8993_1_" y2="107.77" gradientUnits="userSpaceOnUse" x2="-48.42" gradientTransform="matrix(1.3801 0 0 -1.2584 101.83 188.12)" y1="107.77" x1="-66.046">
		<stop offset="0"/>
		<stop style="stop-opacity:0" offset="1"/>
	</linearGradient>
	<path id="rect8993" d="m10 49h25v7h-24.324l-0.676-7z" fill="url(#rect8993_1_)"/>
		<linearGradient id="path8995_1_" y2="106.35" gradientUnits="userSpaceOnUse" x2="-54.762" gradientTransform="matrix(1.3504 0 0 -1.2464 92.928 184.8)" y1="102.9" x1="-54.706">
		<stop style="stop-color:#eee" offset="0"/>
		<stop style="stop-color:#eee;stop-opacity:0" offset="1"/>
	</linearGradient>
	<path id="path8995" opacity=".8114" d="m10.529 56l-0.529-5c2.479 3.963 11.733 5 18 5h-17.471z" enable-background="new    " fill="url(#path8995_1_)"/>
		<radialGradient id="path9039_1_" gradientUnits="userSpaceOnUse" cy="-2633.4" cx="811.3" gradientTransform="matrix(.2541 -.0358 -.0083 -.1439 -204.25 -330.18)" r="78.728">
		<stop style="stop-color:#F5F5F5" offset="0"/>
		<stop style="stop-color:#E7E7E7" offset=".4703"/>
		<stop style="stop-color:#8C8C8C" offset=".6935"/>
		<stop style="stop-color:#ddd" offset=".8354"/>
		<stop style="stop-color:#A8A8A8" offset="1"/>
	</radialGradient>
	<path id="path9039" d="m14.542 13l-0.138 0.544-2.055 8.102-0.349 1.354 1.019-0.291 17.326-5.063 0.055-0.026 0.046-0.025c0.917-0.506 1.408-1.529 1.523-2.468 0.058-0.47 0.041-0.93-0.11-1.355-0.142-0.401-0.512-0.758-0.899-0.747v-0.025h-16.418zm0.587 0.501h15.968c0.008 0.068 0.026 0.106 0.009 0.235-0.05 0.407-0.265 1.864-0.807 2.182l-16.795 4.911 1.625-7.328z" fill="url(#path9039_1_)"/>
	<path id="path9091" d="m56.003 45.493c0.063 0.83 1.015 1.507 2.121 1.507s1.944-0.677 1.871-1.507c-0.073-0.826-1.022-1.493-2.119-1.493s-1.935 0.667-1.873 1.493z" fill="#E1E1E1"/>
		<radialGradient id="path9093_1_" fx="375.59" fy="-442.96" gradientUnits="userSpaceOnUse" cy="-443.38" cx="374.99" gradientTransform="matrix(.5034 0 0 -.4878 -130.78 -170.78)" r="2.5637">
		<stop style="stop-color:#eee" offset="0"/>
		<stop style="stop-color:#CECECE" offset=".16"/>
		<stop style="stop-color:#888" offset=".4675"/>
		<stop style="stop-color:#555" offset="1"/>
	</radialGradient>
	<path id="path9093" d="m56.721 44.909c-0.103 0.104-0.218 0.274-0.218 0.498 0 0.016 0.001 0.032 0.002 0.05 0.043 0.572 0.785 1.055 1.619 1.055 0.474 0 0.908-0.158 1.16-0.425 0.108-0.112 0.231-0.302 0.21-0.552-0.051-0.568-0.792-1.047-1.619-1.047-0.471 0-0.902 0.157-1.154 0.421z" fill="url(#path9093_1_)"/>
		<radialGradient id="rect6300-3_1_" gradientUnits="userSpaceOnUse" cy="-389.33" cx="-45.195" gradientTransform="matrix(1.3526 0 0 -.4869 93.131 -137.15)" r="21">
		<stop style="stop-color:#fff" offset="0"/>
		<stop style="stop-color:#fff;stop-opacity:0" offset="1"/>
	</radialGradient>
		<rect id="rect6300-3" opacity=".3" height="6.816" width="56.812" y="48.99" x="3.595" enable-background="new    " fill="url(#rect6300-3_1_)"/>
</g>
<radialGradient id="path2638_1_" gradientUnits="userSpaceOnUse" cy="-239.3" cx="-165.05" gradientTransform="matrix(2.9767 0 0 -.5788 523.88 -99.176)" r="8.0623">
	<stop style="stop-color:#0D0D0D" offset="0"/>
	<stop style="stop-color:#0D0D0D;stop-opacity:0" offset="1"/>
</radialGradient>
<path id="path2638" opacity=".1629" d="m56.578 39.333c0 2.578-10.745 4.667-24 4.667-13.254 0-24-2.089-24-4.667 0-2.577 10.746-4.666 24-4.666 13.255 0 24 2.089 24 4.666z" enable-background="new    " fill="url(#path2638_1_)"/>
<ellipse opacity=".1" cy="39.027" cx="23.023" rx="16.015" ry="2.721"/>
	<polygon points="19.366 21.871 17.326 16.184 12.015 20.341 15.467 20.821" fill="#B2DEF0"/>
	<polygon stroke="#231815" stroke-width=".883" points="26.67 24.372 26.841 24.444 26.847 24.324" fill="none"/>
	<polygon points="26.841 24.444 32.016 26.633 33.496 22.923 26.67 24.372" fill="#009FE8"/>
	<polygon points="18.483 26.182 26.67 24.372 19.366 21.871" fill="#B2DEF0"/>
	<polygon points="12.015 20.341 13.03 27.427 15.467 20.821" fill="#009FE8"/>
	<polygon points="15.472 20.821 13.03 27.427 19.366 21.871" fill="#0091DA"/>
	<polygon points="13.03 27.427 18.483 26.182 19.366 21.871" fill="#009FE8"/>
	<polygon stroke="#231815" stroke-width=".883" points="18.513 9.613 18.551 9.661 18.557 9.628" fill="none"/>
	<polygon points="17.326 16.184 21.638 16.373 21.734 13.372" fill="#0062B0"/>
	<polygon points="26.598 20.094 21.638 16.373 19.366 21.871" fill="#0091DA"/>
	<polygon stroke="#231815" stroke-width=".883" points="18.565 9.584 18.513 9.613 18.557 9.628" fill="none"/>
	<polygon points="19.366 21.871 21.638 16.373 17.326 16.184" fill="#009FE8"/>
	<polygon points="27.674 37.025 27.696 34.844 27.704 34.844 25.818 33.715" fill="#0062B0"/>
	<polygon points="22.38 36.945 27.674 37.025 25.818 33.715" fill="#004380"/>
	<polygon points="25.818 33.715 27.704 34.844 27.733 34.826 29.15 29.685" fill="#004380"/>
	<polygon points="34.184 36.543 38.106 32.875 33.262 33.436" fill="#0062B0"/>
	<polygon points="29.025 39.629 34.439 39.639 34.184 36.543 30.761 37.369 34.184 36.543 33.262 33.436" fill="#004380"/>
	<polygon points="27.733 34.826 31.735 31.562 29.15 29.685" fill="#0062B0"/>
	<polygon points="38.106 32.875 36.115 28.76 33.262 33.436" fill="#004380"/>
	<polygon points="8.233 38.234 13.408 38.234 10.157 35.918" fill="#004380"/>
	<polygon points="20.802 5.7 23.371 4.685 25.897 0.445" fill="#0091DA"/>
	<polygon points="21.422 2.228 16.33 7.479 19.587 5.474" fill="#0091DA"/>
	<polygon points="31.794 31.562 33.262 33.436 36.115 28.76 29.15 29.685" fill="#0091DA"/>
	<polygon points="23.371 4.685 20.802 5.7 23.749 6.923" fill="#009FE8"/>
	<polygon points="20.091 5.584 21.416 2.257 19.572 5.489" fill="#B2DEF0"/>
	<polygon points="23.371 4.685 23.749 6.923 25.897 0.453" fill="#B2DEF0"/>
	<polygon points="11.949 33.77 10.157 35.918 14.068 33.5 10.851 31.116" fill="#0091DA"/>
	<polygon points="12.091 15.271 12.015 20.341 17.326 16.184" fill="#009FE8"/>
	<polygon points="13.408 38.234 14.068 33.5 10.157 35.918" fill="#0062B0"/>
	<polygon points="36.115 28.76 35.874 23.749 32.016 26.633" fill="#0062B0"/>
	<polygon points="29.15 29.685 36.115 28.76 32.016 26.633" fill="#009FE8"/>
	<polygon points="32.016 26.633 35.874 23.749 33.496 22.923" fill="#0091DA"/>
	<polygon points="35.874 23.749 39.888 21.392 38.415 20.271" fill="#0091DA"/>
	<polygon points="26.32 27.788 29.15 29.685 32.016 26.633" fill="#0062B0"/>
	<polygon points="35.592 21.789 33.496 22.923 35.874 23.749 38.415 20.271" fill="#009FE8"/>
	<polygon points="23.467 29.293 26.32 27.788 18.483 26.182" fill="#004380"/>
	<polygon points="26.67 24.372 26.32 27.788 32.016 26.633" fill="#0091DA"/>
	<polygon points="26.67 24.372 18.483 26.182 26.32 27.788" fill="#0062B0"/>
	<polygon points="41.31 15.947 43.109 18.205 43.153 18.166 46.034 14.463" fill="#B2DEF0"/>
	<polygon points="42.13 21.831 45.163 20.729 43.109 18.205" fill="#0091DA"/>
	<polygon points="43.109 18.205 39.848 21.394 42.12 21.838" fill="#0062B0"/>
	<polygon points="38.415 20.271 39.895 21.401 41.31 15.947" fill="#009FE8"/>
	<polygon points="43.109 18.205 45.163 20.739 46.045 14.463" fill="#009FE8"/>
	<polygon points="41.31 15.947 39.848 21.394 43.109 18.205" fill="#0091DA"/>
	<polygon points="19.572 30.852 23.467 29.293 18.483 26.182" fill="#0091DA"/>
	<polygon points="17.326 16.184 12.178 9.938 12.091 15.271" fill="#0091DA"/>
	<polygon points="16.348 7.312 12.178 9.938 16.758 11.086" fill="#0091DA"/>
	<polygon points="16.758 11.086 12.178 9.938 17.326 16.184" fill="#009FE8"/>
	<polygon points="12.091 15.271 12.178 9.938 10.17 14.218 12.059 15.267" fill="#009FE8"/>
	<polygon points="17.326 16.184 18.551 9.661 18.513 9.613 16.348 7.312 16.758 11.086" fill="#0062B0"/>
	<polygon points="18.551 9.661 19.587 5.474 16.348 7.31 18.513 9.613" fill="#009FE8"/>
	<polygon points="7.319 19.133 12.059 15.267 10.17 14.218" fill="#0062B0"/>
	<polygon points="7.319 19.133 12.015 20.341 12.091 15.271 12.059 15.267" fill="#0091DA"/>
	<polygon points="14.068 33.5 16.146 30.228 13.03 27.427" fill="#004380"/>
	<polygon points="16.146 30.228 19.572 30.852 18.483 26.182" fill="#009FE8"/>
	<polygon points="10.851 31.116 14.068 33.5 13.03 27.427" fill="#0062B0"/>
	<polygon points="13.03 27.427 16.146 30.228 18.483 26.182" fill="#0062B0"/>
	<polygon points="10.002 25.88 12.015 20.341 7.319 19.133" fill="#0062B0"/>
	<polygon points="10.002 25.88 10.851 31.116 13.03 27.427" fill="#009FE8"/>
	<polygon points="12.015 20.341 10.002 25.88 13.03 27.427" fill="#0091DA"/>
	<polygon points="33.496 22.923 26.598 20.094 26.67 24.372" fill="#B2DEF0"/>
	<polygon points="26.67 24.372 26.67 24.372 26.598 20.094 19.366 21.871" fill="#009FE8"/>
	<polygon points="18.551 9.661 17.326 16.184 21.734 13.372" fill="#0091DA"/>
	<polygon points="18.551 9.661 21.734 13.372 24.945 11.771 18.557 9.628" fill="#009FE8"/>
	<polygon points="21.638 16.373 24.945 11.771 21.734 13.372" fill="#B2DEF0"/>
	<polygon points="18.551 9.661 24.945 11.771 23.749 6.923" fill="#B2DEF0"/>
	<polygon points="23.749 6.923 20.802 5.7 19.587 5.474 18.551 9.655" fill="#0091DA"/>
<radialGradient id="path2317_1_" gradientUnits="userSpaceOnUse" cy="749.64" cx="450.74" gradientTransform="matrix(-.00035547 .636 1.0099 0 -749.6 -284.87)" r="38.214">
	<stop style="stop-color:#FFC391" offset="0"/>
	<stop style="stop-color:#FA650B" offset="1"/>
</radialGradient>
<radialGradient id="path2317_2_" gradientUnits="userSpaceOnUse" cy="478.6" cx="-169.38" r="38.213">
	<stop style="stop-color:#F9650D" offset="0"/>
	<stop style="stop-color:#C15619" offset="1"/>
</radialGradient>
<path id="path2317" d="m31.904 0.668c-1.917 0-3.459 1.538-3.458 3.437-0.001 1.899 1.541 3.437 3.458 3.437s3.487-1.538 3.487-3.437-1.571-3.437-3.487-3.437zm-10.295 3.436c-1.727 0.126-3.384 0.555-4.918 1.182l3.108 5.263c0.793-0.249 1.617-0.386 2.486-0.43 0.17-0.008 0.341 0 0.513 0 4.762 0 8.736 3.311 9.728 7.733h6.188c-0.438-3.214-1.864-6.123-3.944-8.431-0.855 0.455-1.828 0.698-2.866 0.698-3.256 0-5.93-2.53-6.079-5.719-0.981-0.186-1.993-0.295-3.027-0.295-0.207 0-0.416-0.008-0.621 0-0.067 0.003-0.123-0.003-0.189 0-0.063 0.003-0.127-0.004-0.19 0-0.06 0.003-0.128-0.005-0.189-0.001zm-8.647 3.33c-2.491 1.921-4.392 4.567-5.404 7.599 1.599 1.084 2.648 2.905 2.648 4.967s-1.049 3.883-2.648 4.967c1.012 3.033 2.912 5.679 5.404 7.6l3.081-5.291c-1.981-1.806-3.216-4.401-3.216-7.276 0-2.873 1.237-5.466 3.216-7.276l-3.081-5.29zm-8.808 9.129c-1.917 0-3.486 1.538-3.486 3.437s1.569 3.437 3.486 3.437 3.459-1.538 3.458-3.437c0.001-1.899-1.541-3.437-3.458-3.437zm28.371 5.585c-0.992 4.422-4.966 7.733-9.728 7.733-1.054 0-2.048-0.158-2.999-0.457l-3.108 5.264c1.883 0.77 3.944 1.207 6.107 1.207 1.034 0 2.046-0.109 3.027-0.295 0.151-3.055 2.629-5.525 5.701-5.719 0.129-0.008 0.247 0 0.378 0 1.038 0 2.01 0.243 2.865 0.698 2.08-2.308 3.506-5.217 3.944-8.431h-6.187zm-0.621 10.311c-1.917 0-3.459 1.538-3.458 3.436-0.001 1.899 1.541 3.438 3.458 3.438s3.486-1.538 3.486-3.438c0-1.898-1.57-3.436-3.486-3.436z" display="none" stroke="url(#path2317_2_)" stroke-width="1.0018" fill="url(#path2317_1_)"/>
<radialGradient id="path2272_1_" gradientUnits="userSpaceOnUse" cy="-556.3" cx="14518" gradientTransform="matrix(.0249 .0164 .0969 -.1444 -296.43 -307.57)" r="116.22">
	<stop style="stop-color:#fff" offset="0"/>
	<stop style="stop-color:#fff;stop-opacity:0" offset="1"/>
</radialGradient>
<path id="path2272" opacity=".6" d="m12.813 8.46c-2.091 1.723-3.708 3.996-4.629 6.59 1.508 1.142 2.499 2.926 2.499 4.949 0 2.022-0.991 3.806-2.499 4.948 0.921 2.595 2.538 4.868 4.629 6.59l2.577-4.428c-1.86-1.814-3.024-4.325-3.024-7.11s1.166-5.293 3.024-7.111l-2.577-4.428zm-0.211 1.276l1.736 3.021c-1.663 1.833-2.718 4.221-2.814 6.85-0.105-1.912-0.999-3.63-2.34-4.845 0.769-1.912 1.946-3.626 3.418-5.026zm-1.078 10.653c0.095 2.629 1.149 5.019 2.814 6.85l-1.736 3.022c-1.471-1.399-2.65-3.113-3.418-5.027 1.342-1.215 2.235-2.934 2.34-4.845z" enable-background="new    " fill="url(#path2272_1_)"/>
<radialGradient id="path2284_1_" gradientUnits="userSpaceOnUse" cy="-2252.8" cx="2106.8" gradientTransform="matrix(.107 -.0038 -.0054 -.1489 -235.1 -309.22)" r="26.269">
	<stop style="stop-color:#fff" offset="0"/>
	<stop style="stop-color:#fff;stop-opacity:0" offset="1"/>
</radialGradient>
<path id="path2284" opacity=".6" d="m3.814 17.212c-1.403 0.157-2.487 1.35-2.487 2.787 0 1.542 1.256 2.786 2.813 2.786s2.813-1.244 2.813-2.786c0-1.543-1.256-2.787-2.813-2.787-0.104 0-0.186-0.003-0.226 0-0.033 0.003-0.066-0.004-0.1 0zm0.076 0.796c0.032-0.004 0.068 0.003 0.101 0h0.151c1.123 0 2.009 0.879 2.009 1.991 0 1.111-0.887 1.99-2.009 1.99s-2.01-0.879-2.01-1.99c-0.001-1.029 0.767-1.869 1.758-1.991z" enable-background="new    " fill="url(#path2284_1_)"/>
<radialGradient id="path4951_1_" gradientUnits="userSpaceOnUse" cy="-2488.2" cx="2313.3" gradientTransform="matrix(.0984 -.0035 -.005 -.1369 -209.56 -329.98)" r="26.272">
	<stop style="stop-color:#fff" offset="0"/>
	<stop style="stop-color:#fff;stop-opacity:0" offset="1"/>
</radialGradient>
<path id="path4951" opacity=".6" d="m31.507 1.543c-1.29 0.144-2.286 1.241-2.286 2.561 0 1.418 1.154 2.561 2.586 2.561 1.431 0 2.585-1.143 2.585-2.561 0-1.417-1.154-2.561-2.585-2.561-0.095 0-0.171-0.003-0.208 0-0.031 0.002-0.062-0.003-0.092 0zm0.069 0.732c0.029-0.003 0.062 0.002 0.092 0h0.139c1.031 0 1.847 0.808 1.847 1.829 0 1.022-0.816 1.83-1.847 1.83-1.032 0-1.847-0.808-1.847-1.83 0-0.945 0.706-1.717 1.616-1.829z" enable-background="new    " fill="url(#path4951_1_)"/>
<radialGradient id="path4955_1_" gradientUnits="userSpaceOnUse" cy="-959.54" cx="13788" gradientTransform="matrix(.0015 .0289 -.17 .0095 -164.09 -383.98)" r="116.22">
	<stop style="stop-color:#fff" offset="0"/>
	<stop style="stop-color:#fff;stop-opacity:0" offset="1"/>
</radialGradient>
<path id="path4955" opacity=".6" d="m17.743 5.665c2.492-0.895 5.214-1.12 7.863-0.607 0.221 1.824 1.24 3.534 2.951 4.534s3.71 1.055 5.421 0.36c1.738 2.052 2.862 4.527 3.285 7.125l-5.02-0.037c-0.615-2.451-2.164-4.665-4.519-6.042-2.356-1.377-5.054-1.644-7.511-0.99l-2.47-4.343zm1.184 0.455l1.697 2.944c2.373-0.482 4.916-0.183 7.186 1.038-1.565-1.033-2.576-2.629-2.94-4.351-1.999-0.305-4.031-0.169-5.943 0.369zm9.544 4.367c2.177 1.379 3.677 3.441 4.403 5.738l3.414 0.044c-0.455-1.921-1.322-3.753-2.562-5.341-1.691 0.52-3.586 0.417-5.255-0.441z" enable-background="new    " fill="url(#path4955_1_)"/>
<linearGradient id="path4972_1_" y2="-66.955" gradientUnits="userSpaceOnUse" x2="83.174" gradientTransform="matrix(.8179 0 0 -.8127 -28.028 -17.751)" y1="-38.556" x1="83.174">
	<stop style="stop-color:#D7E866" offset="0"/>
	<stop style="stop-color:#8CAB2A" offset="1"/>
</linearGradient>
<path id="path4972" d="m55.102 24.5l-9.845 11.498-9.794-11.498h4.982c1.675-4.459-1.764-7.156-5.75-7.156-2.833 0-6.677 1.548-7.976 5.397-0.675 2.003-1.864 1.125-1.818-0.615 0.178-6.714 5.188-12.084 12.667-12.084s13.033 5.629 12.615 14.458h4.919z" stroke="#699536" fill="url(#path4972_1_)"/>
<linearGradient id="path4980_1_" y2="394.45" gradientUnits="userSpaceOnUse" x2="-160.18" y1="450.45" x1="-206.75">
	<stop style="stop-color:#fff" offset="0"/>
	<stop style="stop-color:#fff;stop-opacity:0" offset="1"/>
</linearGradient>
<path id="path4980" opacity=".354" d="m52.811 25.5l-7.554 8.893-7.595-8.893h3.48c2.563-5.672-1.199-9.048-6.275-9.129-3.657-0.285-7.076 2.488-9.072 4.897 1.049-5.648 5.561-10.346 11.814-10.357 6.318-0.012 12.804 5.107 11.406 14.589h3.796z" stroke="url(#path4980_1_)" enable-background="new    " fill="none"/>
</svg>
