/* XPM */
static char *ubiquity[] = {
/* columns rows colors chars-per-pixel */
"32 32 103 2 ",
"   c #020102",
".  c #080808",
"X  c #385F00",
"o  c #386000",
"O  c #003E76",
"+  c #434343",
"@  c #494949",
"#  c #545F44",
"$  c #505050",
"%  c #5C5C5C",
"&  c #605F5F",
"*  c #657A44",
"=  c #626161",
"-  c #6D6D6D",
";  c #797F6F",
":  c #706F70",
">  c #737272",
",  c #7B7A7A",
"<  c #74C500",
"1  c #6A9263",
"2  c #BE9F0D",
"3  c #B49711",
"4  c #B69812",
"5  c #B99B11",
"6  c #BEA110",
"7  c #B6A61E",
"8  c #AAAB31",
"9  c #C4A60E",
"0  c #C7AB0F",
"q  c #CAAE0E",
"w  c #CEB30E",
"e  c #D1B60D",
"r  c #D4B90D",
"t  c #C1A510",
"y  c #C4A810",
"u  c #CCBE1D",
"i  c #D0B810",
"p  c #DCC30C",
"a  c #E3CA0B",
"s  c #EDD509",
"d  c #EFD809",
"f  c #E6D210",
"g  c #838F6F",
"h  c #004380",
"j  c #004B8D",
"k  c #004F90",
"l  c #005195",
"z  c #00579D",
"x  c #005B9D",
"c  c #005BA2",
"v  c #006CB6",
"b  c #006EBC",
"n  c #0072BB",
"m  c #2077B9",
"M  c #0075C0",
"N  c #0079C5",
"B  c #007CC8",
"V  c #1486BA",
"C  c #71B7BE",
"Z  c #0083CD",
"A  c #0D85CB",
"S  c #0086D1",
"D  c #018BD4",
"F  c #008ED8",
"G  c #0A97D5",
"H  c #0194DD",
"J  c #0998DE",
"K  c #1A91D0",
"L  c #2F9FDA",
"P  c #3D9ED6",
"I  c #0299E1",
"U  c #199EE0",
"Y  c #0FA1E6",
"T  c #20A3E3",
"R  c #26A8E6",
"E  c #34ADE6",
"W  c #35AFE8",
"Q  c #4D95C6",
"!  c #44B4E8",
"~  c #5ABDEB",
"^  c #62BDE8",
"/  c #6CC5EC",
"(  c #77C6EA",
")  c #9D9C9C",
"_  c #A6A6A6",
"`  c #ADADAD",
"'  c #B4B4B4",
"]  c #BBBBBB",
"[  c #C0BFBF",
"{  c #82CCED",
"}  c #C4C4C4",
"|  c #C8C7C7",
" . c #CBCBCB",
".. c #D0CFCF",
"X. c #D1CFD1",
"o. c #D4D3D3",
"O. c #D8D7D7",
"+. c #D8D6D8",
"@. c #DDDCDC",
"#. c #E2E2E2",
"$. c #EEEEEE",
"%. c #F1F1F1",
"&. c None",
/* pixels */
"&.&.&.&.&.&.&.&.&.&.&.&.&.&.&.&.&.&.&.&.&.&.&.&.&.&.&.&.&.&.&.&.",
"&.&.&.&.&.&.&.&.&.&.&.&.&.&.&.&.&.&.&.&.&.&.&.&.&.&.&.&.&.&.&.&.",
"&.&.&.&.&.&.&.&.&.&.&.&.&.&.&.&.&.&.&.&.&.&.&.&.&.&.&.&.&.&.&.&.",
"&.&.&.&.&.&.&.&.&.I U &.&.&.&.&.&.&.&.&.&.&.&.&.&.&.&.&.&.&.&.&.",
"&.&.&.&.&.&.&.&.S K ( &.&.&.&.&.&.&.&.&.&.&.&.&.&.&.&.&.&.&.&.&.",
"&.&.&.&.&.&.&.I D S W &.&.&.&.0 e r q t &.&.&.&.&.&.&.&.&.&.&.&.",
"&.&.&.&.&.&.Z H H S P &.&.t r p a s s a r t &.&.&.&.&.&.&.&.&.&.",
"&.&.&.&.&.&.S Y ~ T H &.4 2 9 0 7 8 u f d r t &.&.&.&.&.&.&.&.&.",
"&.&.&.&.&.&.N E ( ! I G C &.&.&.&.V 1 i s s r &.&.&.&.&.&.&.&.&.",
"&.&.&.&.&.&.M I J ! / R ^ { W H &.&.&.6 p s s y &.&.&.&.&.&.&.&.",
"&.&.&.&.&.&.H H F L Q m A J D b &.&.&.&.w d d w &.&.&.&.&.&.&.&.",
"&.&.&.&.&.&.&.v v H n k &.B H N &.5 0 e p s &.&.q t 4 &.&.&.&.&.",
"&.&.&.&.&.&.&.c &.&.&.&.&.v D x &.&.y a s &.&.&.&.6 &.&.&.&.&.&.",
"&.&.&.&.&.&.&.n &.&.&.&.j &.z c &.&.&.y a &.&.&.t &.&.&.&.&.&.&.",
"&.&.&.&.&.&.k z &.&.&.&.&.&.h &.&.&.&.&.t &.&.t &.&.&.&.&.&.&.&.",
"&.&.&.&.&.&.&.&.&.&.&.&.&.&.O &.&.&.&.&.&.t t &.&.&.&.&.&.&.&.&.",
"&.&.&.&.&.&.&.&.&.&.&.&.&.&.&.&.&.&.&.&.&.&.&.&.&.&.&.&.&.&.&.&.",
"&.&.&.&.&.&.&.&.&.&.&.&.&.&.&.&.&.&.&.&.&.&.&.&.&.&.&.&.&.&.&.&.",
"&.&.&.&.&. .@.#.@.#.@.#.@.#.@.#.#.$.%.$.%.$.%.%.%.$.$. .&.&.&.&.",
"&.&.&.&.| $.%.%.%.%.%.%.%.%.%.%.%.%.%.%.$.%.%.%.%.%.%.#.} &.&.&.",
"&.&.&. .$.$.$.$.%.%.%.%.%.%.%.%.%.%.%.%.%.%.%.%.%.%.%.%.#.&.&.&.",
"&.&.' o.@.@.@.@.@.@.@.@.@.#.@.#.@.#.#.@.#.@.@.#.#.#.#.#.#. .&.&.",
"&.` ] ] [ } [ } } | | | | |  . . . .| | | | } | [ } [ [ } ] ` &.",
"&.'  . . .......o.O.o.@.O.@.@.@.@.O.O.o.o.o... . . . .| | | ] &.",
"&.'  . . .o.o. .....X.o.o.+.@.#.@.@.@.o.o.o.o.o.X... . .|  .] &.",
"&._ ` ` ' ' ) @ + # * # + $ _ } ] ] ] ] ] ' ' ' ' ' ' ` ` ` _ &.",
"&.> % % % = @     X < X   . $ = & & % & & % % % % % % % % % : &.",
"&.' | |  . .' > - ; g ; : , } +.O.o.o.o..... . .| } } } [ } ' &.",
"&.'  . . .o...o.o.O.O.O.@.@.@.@.@.O.O.O.o.o.o.o. . . . .| | ] &.",
"&.'  . . . . .o.o.o.+.O.O.@.@.@.O.O.O.O.o.o.o. .X. .|  .| | ] &.",
"&._ ' ' ] ' ] ' ] ] ] ] [ [ [ ] [ ] ] ] ] ' ] ] ' ' ' ' ' ' _ &.",
"&.&.&.&.&.&.&.&.&.&.&.&.&.&.&.&.&.&.&.&.&.&.&.&.&.&.&.&.&.&.&.&."
};
