<?xml version="1.0" encoding="UTF-8" standalone="no"?>
<!-- Generator: Adobe Illustrator 15.0.0, SVG Export Plug-In . SVG Version: 6.00 Build 0)  -->
<!DOCTYPE svg  PUBLIC '-//W3C//DTD SVG 1.1//EN'  'http://www.w3.org/Graphics/SVG/1.1/DTD/svg11.dtd'>
<svg id="svg3786" xmlns="http://www.w3.org/2000/svg" xml:space="preserve" height="32px" viewBox="0 0 32 32" width="32px" version="1.1" y="0px" x="0px" enable-background="new 0 0 32 32">
<g id="g6029" enable-background="new    " transform="matrix(.66666 0 0 .626 -3.3331 3.797)">
		<linearGradient id="rect2723_1_" y2="-47486" gradientUnits="userSpaceOnUse" x2="8420.5" gradientTransform="matrix(.0509 0 0 -.0137 -399.64 -608.02)" y1="-47243" x1="8420.5">
		<stop style="stop-opacity:0" offset="0"/>
		<stop offset=".5"/>
		<stop style="stop-opacity:0" offset="1"/>
	</linearGradient>
		<rect id="rect2723" opacity=".4021" height="5.307" width="36.869" y="38.148" x="10.565" enable-background="new    " fill="url(#rect2723_1_)"/>
		<radialGradient id="path2725_1_" gradientUnits="userSpaceOnUse" cy="-47435" cx="14616" gradientTransform="matrix(.0299 0 0 -.0137 -389.42 -608.02)" r="117.15">
		<stop offset="0"/>
		<stop style="stop-opacity:0" offset="1"/>
	</radialGradient>
	<path id="path2725" opacity=".4021" d="m47.416 38.15v5.306c2.31 0.009 5.584-1.189 5.584-2.654 0-1.464-2.578-2.652-5.584-2.652z" enable-background="new    " fill="url(#path2725_1_)"/>
		<radialGradient id="path2727_1_" gradientUnits="userSpaceOnUse" cy="-47435" cx="-13633" gradientTransform="matrix(-.0299 0 0 -.0137 -397.15 -608.02)" r="117.14">
		<stop offset="0"/>
		<stop style="stop-opacity:0" offset="1"/>
	</radialGradient>
	<path id="path2727" opacity=".4021" d="m10.583 38.15v5.306c-2.309 0.009-5.583-1.189-5.583-2.654 0-1.464 2.577-2.652 5.583-2.652z" enable-background="new    " fill="url(#path2727_1_)"/>
</g>
<linearGradient id="rect6431_1_" y2="-413.56" gradientUnits="userSpaceOnUse" x2="156.36" gradientTransform="matrix(.6887 0 0 -.5067 -91.636 -179.77)" y1="-404.56" x1="156.29">
	<stop style="stop-color:#7A7A7A" offset="0"/>
	<stop style="stop-color:#474747" offset="1"/>
</linearGradient>
<path id="rect6431" stroke-linejoin="round" d="m0.508 25.486h30.984l-0.619 4.05h-29.677l-0.688-4.05v0z" stroke="#353537" stroke-linecap="round" stroke-width=".928" fill="url(#rect6431_1_)"/>
<rect id="rect6381" height="1" width="31" y="25" x=".5" fill="#D2D2D3"/>
<radialGradient id="path6345_1_" gradientUnits="userSpaceOnUse" cy="-3.168" cx="-71.059" gradientTransform="matrix(1.4045 0 0 -.9375 109.8 8.0292)" r="16">
	<stop style="stop-color:#E6E6E6" offset="0"/>
	<stop style="stop-color:#C8C8C8" offset="1"/>
</radialGradient>
<linearGradient id="path6345_2_" y2="426.75" gradientUnits="userSpaceOnUse" x2="-267.68" y1="413.2" x1="-261.86">
	<stop style="stop-color:#969696" offset="0"/>
	<stop style="stop-color:#B4B4B4" offset="1"/>
</linearGradient>
<path id="path6345" stroke-linejoin="round" d="m31.502 25.502l-4.682-17.121c-0.131-0.487-0.825-0.883-1.408-0.883h-18.985c-0.896 0-1.409 0.132-1.598 0.883l-4.331 17.104" stroke="url(#path6345_2_)" stroke-linecap="round" stroke-width=".9958" fill="url(#path6345_1_)"/>
<path id="path7046" opacity=".35" d="m30.5 25.508l-29-0.016" stroke="#fff" stroke-linecap="round" enable-background="new    " fill="none"/>
<g id="g9164" enable-background="new    " transform="matrix(.067079 0 0 .046533 2.4612 -.21308)">
	<path id="path9166" d="m48.301 190.28c0.313 4.25 5.023 7.713 10.511 7.713s9.645-3.463 9.281-7.713c-0.364-4.229-5.074-7.639-10.511-7.639s-9.594 3.41-9.281 7.64z" fill="#F0F0F0"/>
		<radialGradient id="path9168_1_" fy="-67731" gradientUnits="userSpaceOnUse" cy="-67732" cx="22522" gradientTransform="matrix(.1674 0 0 -.1161 -3712.1 -7675.5)" r="2.5647">
		<stop style="stop-color:#eee" offset="0"/>
		<stop style="stop-color:#CECECE" offset=".16"/>
		<stop style="stop-color:#888" offset=".4675"/>
		<stop style="stop-color:#555" offset="1"/>
	</radialGradient>
	<path id="path9168" d="m51.853 187.29c-0.502 0.546-1.077 1.406-1.077 2.55 0 0.094 0.007 0.178 0.007 0.262 0.218 2.917 3.894 5.404 8.029 5.404 2.351 0 4.506-0.829 5.751-2.183 0.539-0.577 1.15-1.543 1.041-2.833-0.255-2.896-3.923-5.352-8.022-5.352-2.337 0-4.477 0.8-5.729 2.15z" fill="url(#path9168_1_)"/>
</g>
<g id="g9170" enable-background="new    " transform="matrix(.067079 0 0 .046533 21.361 -.21308)">
	<path id="path9172" d="m48.309 190.28c0.306 4.25 5.008 7.713 10.511 7.713 5.474 0 9.638-3.463 9.259-7.713-0.349-4.229-5.066-7.639-10.497-7.639s-9.593 3.41-9.273 7.64z" fill="#E6E6E6"/>
		<radialGradient id="path9174_1_" fx="22241" fy="-67731" gradientUnits="userSpaceOnUse" cy="-67732" cx="22240" gradientTransform="matrix(.1674 0 0 -.1161 -3665 -7675.5)" r="2.5641">
		<stop style="stop-color:#eee" offset="0"/>
		<stop style="stop-color:#CECECE" offset=".16"/>
		<stop style="stop-color:#888" offset=".4675"/>
		<stop style="stop-color:#555" offset="1"/>
	</radialGradient>
	<path id="path9174" d="m51.862 187.29c-0.51 0.546-1.077 1.406-1.077 2.55v0.262c0.218 2.917 3.902 5.404 8.036 5.404 2.344 0 4.499-0.829 5.736-2.183 0.553-0.577 1.165-1.543 1.048-2.833-0.262-2.896-3.931-5.352-8.022-5.352-2.344 0-4.484 0.8-5.721 2.15z" fill="url(#path9174_1_)"/>
</g>
<radialGradient id="path3829_1_" gradientUnits="userSpaceOnUse" cy="-2070.8" cx="988.84" gradientTransform="matrix(.2457 -.0031 -.0018 -.1777 -231.22 -341.84)" r="78.728">
	<stop style="stop-color:#F5F5F5" offset="0"/>
	<stop style="stop-color:#E7E7E7" offset=".4703"/>
	<stop style="stop-color:#8C8C8C" offset=".6935"/>
	<stop style="stop-color:#ddd" offset=".8354"/>
	<stop style="stop-color:#A8A8A8" offset="1"/>
</radialGradient>
<path id="path3829" d="m19.336 8.877c-0.355 0-0.676 0.08-0.928 0.215s-0.451 0.359-0.464 0.646c-0.032 0.688-0.534 1.206-1.485 1.691-0.946 0.482-2.311 0.884-3.96 1.26-0.011 0.003-0.021-0.003-0.031 0-0.615 0.096-1.64 0.338-2.631 0.615-0.99 0.275-1.9 0.583-2.32 0.799-0.005 0.003-0.026-0.002-0.031 0-2.091 0.987-3.404 2.316-3.589 3.812-0.169 1.367 0.641 2.727 2.197 3.78 2.275 1.542 5.958 2.429 9.901 2.429 3.942 0 7.655-0.885 9.932-2.429 1.422-0.963 2.196-2.165 2.196-3.412 0-0.136-0.018-0.267-0.029-0.368-0.163-1.308-1.186-2.506-2.848-3.442-0.053-0.543-0.464-4.765-0.464-4.765-0.026-0.286-0.239-0.48-0.495-0.615s-0.574-0.215-0.928-0.215h-4.023zm0 0.645h4.023c0.081 0 0.141 0.02 0.186 0.031l0.464 5.01c-0.001 0.011-0.001 0.021 0 0.03 0.007 0.022 0.019 0.043 0.03 0.062 0.022 0.039 0.055 0.07 0.094 0.092 1.629 0.831 2.592 2.082 2.723 3.135 0.081 0.655-0.138 1.258-0.619 1.814-0.482 0.557-1.246 1.052-2.228 1.475-1.962 0.846-4.789 1.353-8.014 1.353s-6.052-0.507-8.014-1.353c-0.981-0.422-1.746-0.917-2.228-1.474s-0.7-1.159-0.619-1.814c0.14-1.128 1.196-2.431 3.032-3.289 0.01 0.001 0.021 0.001 0.031 0 0.004-0.002 0.1-0.046 0.217-0.091 0.117-0.046 0.284-0.124 0.464-0.185 0.36-0.12 0.812-0.26 1.3-0.399 0.975-0.279 2.06-0.539 2.599-0.615 0.01 0.001 0.021 0.001 0.031 0 1.595-0.362 3.126-0.794 4.302-1.383 1.129-0.566 1.934-1.328 2.042-2.367 0.028-0.012 0.094-0.032 0.184-0.032z" fill="url(#path3829_1_)"/>
<radialGradient id="path9156_1_" gradientUnits="userSpaceOnUse" cy="4944.5" cx="2144.3" gradientTransform="matrix(.1233 0 0 .0863 -248.89 -411.81)" r="78.728">
	<stop style="stop-color:#F5F5F5" offset="0"/>
	<stop style="stop-color:#E7E7E7" offset=".4703"/>
	<stop style="stop-color:#8C8C8C" offset=".6935"/>
	<stop style="stop-color:#ddd" offset=".8354"/>
	<stop style="stop-color:#A8A8A8" offset="1"/>
</radialGradient>
<path id="path9156" d="m16 20c-2.243 0-3.963-0.836-3.999-1.945-0.001-0.012-0.001-0.024-0.001-0.035 0-0.401 0.225-0.783 0.654-1.105 0.724-0.547 1.975-0.873 3.346-0.873s2.622 0.326 3.346 0.873c0.441 0.332 0.668 0.727 0.653 1.141-0.036 1.108-1.756 1.944-3.999 1.944zm0.067-2.718c-2.108 0-3.249 0.208-3.224 0.965 0.025 0.744 1.438 1.339 3.157 1.339s3.132-0.595 3.156-1.339c0.026-0.757-0.981-0.965-3.089-0.965z" fill="url(#path9156_1_)"/>
<radialGradient id="path3825_1_" gradientUnits="userSpaceOnUse" cy="-9143.7" cx="1747.4" gradientTransform="matrix(.1209 -.0155 -.0055 -.0461 -249.51 -382.67)" r="78.728">
	<stop style="stop-color:#F5F5F5" offset="0"/>
	<stop style="stop-color:#E7E7E7" offset=".2775"/>
	<stop style="stop-color:#8C8C8C" offset=".5236"/>
	<stop style="stop-color:#ddd" offset="1"/>
	<stop style="stop-color:#A8A8A8" offset="1"/>
</radialGradient>
<path id="path3825" d="m7.406 9.114c-0.012 0.007-0.022 0.017-0.03 0.028-0.012 0.007-0.022 0.017-0.03 0.028l-0.09 0.197-0.956 2.925-0.179 0.478c-0.002 0.009-0.002 0.019 0 0.028-0.002 0.009-0.002 0.019 0 0.028 0.007 0.012 0.018 0.021 0.03 0.028 0.007 0.012 0.018 0.021 0.03 0.029 0.01 0.002 0.02 0.002 0.03 0 0.01 0.002 0.02 0.002 0.03 0l0.478-0.112 8.276-1.828h0.03c0.009 0.001 0.02 0.001 0.029 0 0.468-0.194 0.747-0.619 0.807-0.985 0.03-0.181 0.019-0.338-0.06-0.506-0.084-0.179-0.305-0.343-0.538-0.338h-7.827c-0.01-0.001-0.02-0.001-0.03 0zm0.359 0.338h7.5c-0.011 0.07-0.031 0.209-0.09 0.365-0.058 0.156-0.151 0.298-0.239 0.337l-7.888 1.744 0.717-2.446z" fill="url(#path3825_1_)"/>
<g id="g9158" enable-background="new    " transform="matrix(-.097811 0 0 .10767 9.1622 3.1817)">
	<path id="path9160" d="m48.3 190.28c0.314 4.254 5.027 7.709 10.513 7.709 5.491 0 9.645-3.456 9.275-7.709-0.364-4.227-5.067-7.637-10.503-7.637s-9.595 3.41-9.285 7.64z" fill="#E6E6E6"/>
		<radialGradient id="path9162_1_" fx="13607" gradientUnits="userSpaceOnUse" cy="-10894" cx="13606" gradientTransform="matrix(-.2441 0 0 -.2687 3379.6 -2737.1)" r="2.563">
		<stop style="stop-color:#eee" offset="0"/>
		<stop style="stop-color:#CECECE" offset=".16"/>
		<stop style="stop-color:#888" offset=".4675"/>
		<stop style="stop-color:#555" offset="1"/>
	</radialGradient>
	<path id="path9162" d="m51.849 187.29c-0.499 0.535-1.073 1.397-1.073 2.54 0 0.091 0.005 0.181 0.01 0.272 0.22 2.921 3.894 5.397 8.027 5.397 2.351 0 4.503-0.825 5.751-2.186 0.539-0.58 1.148-1.542 1.038-2.83-0.25-2.902-3.924-5.351-8.022-5.351-2.336 0.01-4.478 0.8-5.731 2.16z" fill="url(#path9162_1_)"/>
</g>
<g id="g9190" enable-background="new    " transform="matrix(.097811 0 0 .10767 22.777 3.1817)">
	<path id="path9192" d="m48.307 190.28c0.31 4.254 5.012 7.709 10.503 7.709s9.645-3.456 9.285-7.709c-0.369-4.227-5.072-7.637-10.513-7.637s-9.595 3.41-9.275 7.64z" fill="#E6E6E6"/>
		<radialGradient id="path9194_1_" fx="9836.5" gradientUnits="userSpaceOnUse" cy="-10894" cx="9835.9" gradientTransform="matrix(.2441 0 0 -.2687 -2342.8 -2737.1)" r="2.5637">
		<stop style="stop-color:#eee" offset="0"/>
		<stop style="stop-color:#CECECE" offset=".16"/>
		<stop style="stop-color:#888" offset=".4675"/>
		<stop style="stop-color:#555" offset="1"/>
	</radialGradient>
	<path id="path9194" d="m51.851 187.29c-0.499 0.535-1.068 1.397-1.068 2.54v0.272c0.22 2.921 3.894 5.397 8.027 5.397 2.356 0 4.513-0.825 5.751-2.186 0.539-0.58 1.158-1.542 1.038-2.83-0.25-2.902-3.914-5.351-8.017-5.351-2.336 0.01-4.483 0.8-5.731 2.16z" fill="url(#path9194_1_)"/>
</g>
<linearGradient id="rect9146_1_" y2="-350.46" gradientUnits="userSpaceOnUse" x2="98.172" gradientTransform="matrix(.793 0 0 -.5393 -58.854 -161.52)" y1="-350.46" x1="80.547">
	<stop offset="0"/>
	<stop style="stop-color:#bbb;stop-opacity:0" offset="1"/>
</linearGradient>
<path id="rect9146" d="m4.7 26h14.3v3h-13.977l-0.323-3z" fill="url(#rect9146_1_)"/>
<linearGradient id="path9148_1_" y2="-348.91" gradientUnits="userSpaceOnUse" x2="87.659" gradientTransform="matrix(.793 0 0 -.5393 -59.485 -160.8)" y1="-352.36" x1="87.714">
	<stop style="stop-color:#eee" offset="0"/>
	<stop style="stop-color:#eee;stop-opacity:0" offset="1"/>
</linearGradient>
<path id="path9148" opacity=".8114" d="m5.022 29l-0.215-2.163c1.456 1.714 6.795 2.163 10.477 2.163h-10.262z" enable-background="new    " fill="url(#path9148_1_)"/>
<radialGradient id="rect6300-3_1_" gradientUnits="userSpaceOnUse" cy="-1497.4" cx="136.63" gradientTransform="matrix(.7143 0 0 -.2143 -81.59 -293.37)" r="20.999">
	<stop style="stop-color:#fff" offset="0"/>
	<stop style="stop-color:#fff;stop-opacity:0" offset="1"/>
</radialGradient>
<rect id="rect6300-3" opacity=".2" height="3" width="30" y="26" x="1" enable-background="new    " fill="url(#rect6300-3_1_)"/>
<g id="图层_2">
	<ellipse opacity=".1" cy="19.022" cx="9.945" rx="7.375" ry="1.253"/>
</g>
	<polygon points="8.507 10.932 7.498 8.12 4.873 10.175 6.579 10.413" fill="#B2DEF0"/>
	<polygon stroke="#231815" stroke-width=".883" points="12.118 12.169 12.203 12.204 12.205 12.145" fill="none"/>
	<polygon points="12.203 12.204 14.761 13.286 15.492 11.452 12.118 12.169" fill="#009FE8"/>
	<polygon points="8.07 13.063 12.118 12.169 8.507 10.932" fill="#B2DEF0"/>
	<polygon points="4.873 10.175 5.375 13.678 6.579 10.413" fill="#009FE8"/>
	<polygon points="6.582 10.413 5.375 13.678 8.507 10.932" fill="#0091DA"/>
	<polygon points="5.375 13.678 8.07 13.063 8.507 10.932" fill="#009FE8"/>
	<polygon stroke="#231815" stroke-width=".883" points="8.085 4.872 8.104 4.896 8.107 4.879" fill="none"/>
	<polygon points="7.498 8.12 9.63 8.213 9.678 6.73" fill="#0062B0"/>
	<polygon points="12.082 10.053 9.63 8.213 8.507 10.932" fill="#0091DA"/>
	<polygon stroke="#231815" stroke-width=".883" points="8.111 4.857 8.085 4.872 8.107 4.879" fill="none"/>
	<polygon points="8.507 10.932 9.63 8.213 7.498 8.12" fill="#009FE8"/>
	<polygon points="12.614 18.424 12.625 17.345 12.629 17.345 11.697 16.787" fill="#0062B0"/>
	<polygon points="9.997 18.384 12.614 18.424 11.697 16.787" fill="#004380"/>
	<polygon points="11.697 16.787 12.629 17.345 12.643 17.337 13.344 14.795" fill="#004380"/>
	<polygon points="15.832 18.185 17.771 16.372 15.376 16.648" fill="#0062B0"/>
	<polygon points="13.283 19.711 15.959 19.716 15.832 18.185 14.14 18.594 15.832 18.185 15.376 16.648" fill="#004380"/>
	<polygon points="12.643 17.337 14.622 15.722 13.344 14.795" fill="#0062B0"/>
	<polygon points="17.771 16.372 16.787 14.337 15.376 16.648" fill="#004380"/>
	<polygon points="3.003 19.022 5.561 19.022 3.955 17.876" fill="#004380"/>
	<polygon points="9.217 2.938 10.487 2.436 11.736 0.339" fill="#0091DA"/>
	<polygon points="9.523 1.221 7.006 3.817 8.616 2.826" fill="#0091DA"/>
	<polygon points="14.651 15.722 15.376 16.648 16.787 14.337 13.344 14.795" fill="#0091DA"/>
	<polygon points="10.487 2.436 9.217 2.938 10.673 3.542" fill="#009FE8"/>
	<polygon points="8.865 2.88 9.52 1.235 8.609 2.833" fill="#B2DEF0"/>
	<polygon points="10.487 2.436 10.673 3.542 11.736 0.343" fill="#B2DEF0"/>
	<polygon points="4.84 16.814 3.955 17.876 5.888 16.681 4.297 15.502" fill="#0091DA"/>
	<polygon points="4.911 7.669 4.873 10.175 7.498 8.12" fill="#009FE8"/>
	<polygon points="5.561 19.022 5.888 16.681 3.955 17.876" fill="#0062B0"/>
	<polygon points="16.787 14.337 16.668 11.86 14.761 13.286" fill="#0062B0"/>
	<polygon points="13.344 14.795 16.787 14.337 14.761 13.286" fill="#009FE8"/>
	<polygon points="14.761 13.286 16.668 11.86 15.492 11.452" fill="#0091DA"/>
	<polygon points="16.668 11.86 18.652 10.694 17.924 10.141" fill="#0091DA"/>
	<polygon points="11.945 13.857 13.344 14.795 14.761 13.286" fill="#0062B0"/>
	<polygon points="16.528 10.891 15.492 11.452 16.668 11.86 17.924 10.141" fill="#009FE8"/>
	<polygon points="10.534 14.601 11.945 13.857 8.07 13.063" fill="#004380"/>
	<polygon points="12.118 12.169 11.945 13.857 14.761 13.286" fill="#0091DA"/>
	<polygon points="12.118 12.169 8.07 13.063 11.945 13.857" fill="#0062B0"/>
	<polygon points="19.355 8.003 20.245 9.119 20.267 9.1 21.69 7.27" fill="#B2DEF0"/>
	<polygon points="19.761 10.912 21.26 10.367 20.245 9.119" fill="#0091DA"/>
	<polygon points="20.245 9.119 18.633 10.696 19.756 10.915" fill="#0062B0"/>
	<polygon points="17.924 10.141 18.655 10.699 19.355 8.003" fill="#009FE8"/>
	<polygon points="20.245 9.119 21.26 10.372 21.696 7.27" fill="#009FE8"/>
	<polygon points="19.355 8.003 18.633 10.696 20.245 9.119" fill="#0091DA"/>
	<polygon points="8.609 15.372 10.534 14.601 8.07 13.063" fill="#0091DA"/>
	<polygon points="7.498 8.12 4.954 5.033 4.911 7.669" fill="#0091DA"/>
	<polygon points="7.015 3.734 4.954 5.033 7.218 5.6" fill="#0091DA"/>
	<polygon points="7.218 5.6 4.954 5.033 7.498 8.12" fill="#009FE8"/>
	<polygon points="4.911 7.669 4.954 5.033 3.961 7.148 4.894 7.667" fill="#009FE8"/>
	<polygon points="7.498 8.12 8.104 4.896 8.085 4.872 7.015 3.734 7.218 5.6" fill="#0062B0"/>
	<polygon points="8.104 4.896 8.616 2.826 7.015 3.733 8.085 4.872" fill="#009FE8"/>
	<polygon points="2.551 9.578 4.894 7.667 3.961 7.148" fill="#0062B0"/>
	<polygon points="2.551 9.578 4.873 10.175 4.911 7.669 4.894 7.667" fill="#0091DA"/>
	<polygon points="5.888 16.681 6.915 15.063 5.375 13.678" fill="#004380"/>
	<polygon points="6.915 15.063 8.609 15.372 8.07 13.063" fill="#009FE8"/>
	<polygon points="4.297 15.502 5.888 16.681 5.375 13.678" fill="#0062B0"/>
	<polygon points="5.375 13.678 6.915 15.063 8.07 13.063" fill="#0062B0"/>
	<polygon points="3.878 12.914 4.873 10.175 2.551 9.578" fill="#0062B0"/>
	<polygon points="3.878 12.914 4.297 15.502 5.375 13.678" fill="#009FE8"/>
	<polygon points="4.873 10.175 3.878 12.914 5.375 13.678" fill="#0091DA"/>
	<polygon points="15.492 11.452 12.082 10.053 12.118 12.169" fill="#B2DEF0"/>
	<polygon points="12.118 12.169 12.118 12.169 12.082 10.053 8.507 10.932" fill="#009FE8"/>
	<polygon points="8.104 4.896 7.498 8.12 9.678 6.73" fill="#0091DA"/>
	<polygon points="8.104 4.896 9.678 6.73 11.265 5.939 8.107 4.879" fill="#009FE8"/>
	<polygon points="9.63 8.213 11.265 5.939 9.678 6.73" fill="#B2DEF0"/>
	<polygon points="8.104 4.896 11.265 5.939 10.673 3.542" fill="#B2DEF0"/>
	<polygon points="10.673 3.542 9.217 2.938 8.616 2.826 8.104 4.893" fill="#0091DA"/>
<radialGradient id="path2317_1_" gradientUnits="userSpaceOnUse" cy="1032.9" cx="1107.6" gradientTransform="matrix(-.00017632 .3155 .501 0 -513.46 -348.34)" r="38.212">
	<stop style="stop-color:#FFC391" offset="0"/>
	<stop style="stop-color:#FA650B" offset="1"/>
</radialGradient>
<radialGradient id="path2317_2_" gradientUnits="userSpaceOnUse" cy="462.6" cx="-185.38" r="38.213">
	<stop style="stop-color:#F9650D" offset="0"/>
	<stop style="stop-color:#C15619" offset="1"/>
</radialGradient>
<path id="path2317" d="m15.995 0.501c-0.951 0-1.716 0.763-1.715 1.705-0.001 0.942 0.764 1.705 1.715 1.705 0.95 0 1.729-0.763 1.729-1.705s-0.779-1.705-1.729-1.705zm-5.107 1.705c-0.857 0.063-1.679 0.275-2.439 0.586l1.541 2.61c0.394-0.124 0.803-0.191 1.234-0.213 0.084-0.004 0.169 0 0.254 0 2.362 0 4.334 1.643 4.825 3.836h3.07c-0.219-1.594-0.925-3.038-1.957-4.182-0.424 0.226-0.906 0.346-1.421 0.346-1.615 0-2.941-1.255-3.016-2.837-0.486-0.092-0.988-0.146-1.501-0.146-0.103 0-0.206-0.004-0.308 0-0.033 0.001-0.061-0.001-0.094 0-0.031 0.001-0.063-0.002-0.094 0-0.03 0.002-0.063-0.002-0.094 0zm-4.288 1.651c-1.237 0.953-2.179 2.266-2.682 3.77 0.793 0.538 1.314 1.441 1.314 2.463 0 1.023-0.521 1.927-1.314 2.464 0.502 1.504 1.444 2.817 2.681 3.769l1.528-2.623c-0.983-0.896-1.595-2.184-1.595-3.61 0-1.425 0.614-2.711 1.595-3.609l-1.527-2.624zm-4.37 4.529c-0.951 0-1.729 0.763-1.729 1.704 0 0.942 0.778 1.705 1.729 1.705s1.716-0.763 1.715-1.705c0.001-0.942-0.764-1.704-1.715-1.704zm14.073 2.77c-0.491 2.193-2.463 3.835-4.825 3.835-0.523 0-1.016-0.078-1.488-0.226l-1.541 2.61c0.934 0.382 1.956 0.6 3.029 0.6 0.513 0 1.015-0.055 1.501-0.146 0.075-1.515 1.305-2.741 2.828-2.837 0.064-0.004 0.123 0 0.188 0 0.515 0 0.997 0.121 1.421 0.347 1.031-1.145 1.738-2.588 1.957-4.182h-3.07zm-0.308 5.114c-0.951 0-1.716 0.763-1.715 1.705-0.001 0.942 0.764 1.705 1.715 1.705 0.95 0 1.729-0.763 1.729-1.705 0.001-0.942-0.779-1.705-1.729-1.705z" display="none" stroke="url(#path2317_2_)" stroke-width="1.0018" fill="url(#path2317_1_)"/>
<radialGradient id="path2272_1_" gradientUnits="userSpaceOnUse" cy="-1673.4" cx="30923" gradientTransform="matrix(.0123 .0081 .048 -.0716 -295.72 -365.66)" r="116.22">
	<stop style="stop-color:#fff" offset="0"/>
	<stop style="stop-color:#fff;stop-opacity:0" offset="1"/>
</radialGradient>
<path id="path2272" opacity=".6" d="m6.525 4.366c-1.037 0.855-1.839 1.983-2.296 3.269 0.748 0.567 1.239 1.452 1.239 2.455s-0.491 1.888-1.239 2.454c0.457 1.287 1.259 2.415 2.296 3.269l1.278-2.196c-0.923-0.9-1.5-2.146-1.5-3.527 0-1.382 0.579-2.625 1.5-3.527l-1.278-2.197zm-0.104 0.633l0.861 1.499c-0.825 0.909-1.349 2.094-1.396 3.398-0.052-0.948-0.495-1.801-1.161-2.403 0.381-0.949 0.965-1.8 1.696-2.494zm-0.535 5.284c0.047 1.304 0.569 2.49 1.396 3.398l-0.861 1.499c-0.73-0.694-1.315-1.544-1.696-2.494 0.666-0.602 1.109-1.454 1.161-2.403z" enable-background="new    " fill="url(#path2272_1_)"/>
<radialGradient id="path2284_1_" gradientUnits="userSpaceOnUse" cy="-5209.9" cx="4764.1" gradientTransform="matrix(.0531 -.0019 -.0027 -.0739 -265.46 -366.67)" r="26.269">
	<stop style="stop-color:#fff" offset="0"/>
	<stop style="stop-color:#fff;stop-opacity:0" offset="1"/>
</radialGradient>
<path id="path2284" opacity=".6" d="m2.061 8.708c-0.695 0.077-1.233 0.669-1.233 1.382 0 0.765 0.623 1.382 1.396 1.382s1.396-0.617 1.396-1.382c0-0.766-0.623-1.382-1.396-1.382-0.051 0-0.092-0.001-0.112 0-0.017 0.001-0.033-0.002-0.051 0zm0.038 0.395c0.016-0.002 0.034 0.001 0.05 0h0.075c0.557 0 0.997 0.436 0.997 0.987s-0.44 0.987-0.997 0.987-0.997-0.436-0.997-0.987c0-0.51 0.381-0.927 0.872-0.987z" enable-background="new    " fill="url(#path2284_1_)"/>
<radialGradient id="path4951_1_" gradientUnits="userSpaceOnUse" cy="-5704.2" cx="5205.8" gradientTransform="matrix(.0488 -.0017 -.0025 -.0679 -252.85 -376.87)" r="26.264">
	<stop style="stop-color:#fff" offset="0"/>
	<stop style="stop-color:#fff;stop-opacity:0" offset="1"/>
</radialGradient>
<path id="path4951" opacity=".6" d="m15.798 0.935c-0.64 0.072-1.134 0.616-1.134 1.271 0 0.703 0.573 1.27 1.283 1.27s1.282-0.567 1.282-1.27c0-0.704-0.571-1.271-1.282-1.271-0.047 0-0.085-0.001-0.103 0-0.016 0.002-0.031-0.001-0.046 0zm0.034 0.363c0.015-0.001 0.031 0.001 0.046 0h0.069c0.511 0 0.917 0.401 0.917 0.908s-0.405 0.907-0.917 0.907c-0.512 0-0.916-0.4-0.916-0.907 0-0.47 0.35-0.852 0.801-0.908z" enable-background="new    " fill="url(#path4951_1_)"/>
<radialGradient id="path4955_1_" gradientUnits="userSpaceOnUse" cy="-2612.4" cx="29124" gradientTransform="matrix(.00076661 .0143 -.0843 .0047 -232.38 -402.24)" r="116.22">
	<stop style="stop-color:#fff" offset="0"/>
	<stop style="stop-color:#fff;stop-opacity:0" offset="1"/>
</radialGradient>
<path id="path4955" opacity=".6" d="m8.971 2.98c1.236-0.444 2.586-0.556 3.9-0.301 0.11 0.905 0.615 1.753 1.464 2.249 0.848 0.496 1.84 0.523 2.688 0.179 0.863 1.018 1.42 2.245 1.631 3.534l-2.49-0.018c-0.306-1.216-1.074-2.314-2.242-2.997-1.169-0.683-2.507-0.815-3.725-0.491l-1.226-2.155zm0.587 0.225l0.842 1.46c1.177-0.239 2.438-0.091 3.564 0.514-0.776-0.512-1.277-1.304-1.458-2.158-0.992-0.15-1.999-0.082-2.948 0.184zm4.734 2.167c1.08 0.684 1.824 1.707 2.184 2.846l1.694 0.022c-0.227-0.953-0.656-1.862-1.271-2.65-0.839 0.258-1.779 0.207-2.607-0.218z" enable-background="new    " fill="url(#path4955_1_)"/>
<linearGradient id="path4972_1_" y2="-609.44" gradientUnits="userSpaceOnUse" x2="436.45" gradientTransform="matrix(.4057 0 0 -.4031 -157.06 -227.33)" y1="-581.04" x1="436.45">
	<stop style="stop-color:#D7E866" offset="0"/>
	<stop style="stop-color:#8CAB2A" offset="1"/>
</linearGradient>
<path id="path4972" d="m27.501 12.5l-4.882 6-4.859-6h2.473c0.83-2.212-0.875-3.728-2.854-3.728-1.405 0-3.312 0.768-3.956 2.678-0.335 0.993-0.925 0.558-0.902-0.305 0.088-3.331 2.573-5.994 6.284-5.994 3.709 0 6.465 2.97 6.258 7.349h2.438z" stroke="#699536" fill="url(#path4972_1_)"/>
<linearGradient id="path4980_1_" y2="378.45" gradientUnits="userSpaceOnUse" x2="-176.18" y1="434.45" x1="-222.75">
	<stop style="stop-color:#fff" offset="0"/>
	<stop style="stop-color:#fff;stop-opacity:0" offset="1"/>
</linearGradient>
<path id="path4980" opacity=".354" d="m25.482 13.5l-2.863 3.467-2.844-3.467h1.156c1.271-2.813-0.154-5.602-3.113-5.679-1.813-0.141-3.478 1.216-4.467 2.411 0.631-2.83 2.298-4.092 5.401-4.099 3.135-0.006 5.881 2.59 5.262 7.367h1.468z" stroke="url(#path4980_1_)" enable-background="new    " fill="none"/>
</svg>
